<svg width="196" height="26" viewBox="0 0 196 26" fill="none" xmlns="http://www.w3.org/2000/svg">
<mask id="path-1-outside-1_358_5986" maskUnits="userSpaceOnUse" x="93.2793" y="-0.0480347" width="103" height="26" fill="black">
<rect fill="white" x="93.2793" y="-0.0480347" width="103" height="26"/>
<path d="M104.331 20.2603C101.288 20.2603 98.6978 18.5334 98.6978 14.3806C98.6978 10.1249 101.597 5.25254 106.448 5.25254C109.327 5.25254 112.164 6.85612 111.876 10.4128H109.265C109.347 8.3569 107.846 7.61679 106.428 7.61679C103.324 7.61679 101.37 11.1734 101.37 14.2778C101.37 16.9093 102.748 17.8961 104.372 17.8961C105.976 17.8961 107.291 16.8887 107.888 15.1412H110.54C109.368 18.4923 107.271 20.2603 104.331 20.2603ZM120.542 19.952L122.31 13.5788H115.773L114.005 19.952H111.476L115.485 5.56092H118.014L116.431 11.2145H122.968L124.551 5.56092H127.08L123.071 19.952H120.542ZM131.386 20.2809C127.83 20.2809 125.815 17.4027 127.953 13.8255L133.011 5.56092H136.135L130.317 14.874C129.454 16.4981 130.173 17.6083 131.777 17.6083C133.524 17.6083 134.594 16.4776 135.745 14.5862L141.234 5.56092H144.359L138.602 14.874C136.3 18.8007 134.635 20.2809 131.386 20.2809ZM138.549 19.952L147.224 5.56092H151.994C153.988 5.56092 155.921 6.50662 155.921 8.97366C155.921 11.5846 153.7 13.9488 149.733 14.3806L150.37 19.952H147.368L146.813 14.3395H145.045L141.653 19.952H138.549ZM146.608 11.7696H148.931C151.418 11.7696 152.878 10.6595 152.878 9.4465C152.878 8.68584 152.426 8.23355 151.357 8.23355H148.746L146.608 11.7696ZM157.337 20.2809C155.26 20.2809 154.541 19.3146 154.541 17.9578C154.541 13.0648 162.888 5.23199 169.446 5.23199C171.933 5.23199 173.804 7.14394 171.399 10.4539H168.479C170.001 8.19243 169.343 7.63735 168.459 7.63735C164.614 7.63735 157.522 14.1544 157.522 17.1766C157.522 17.6083 157.727 17.8755 158.282 17.8755C159.578 17.8755 161.284 16.971 162.785 15.4907H166.341C163.401 18.4101 160.667 20.2809 157.337 20.2809ZM172.441 19.952L178.752 13.6405H173.839L167.527 19.952H164.012L178.403 5.56092H181.918L176.265 11.2145H181.178L186.832 5.56092H190.347L175.956 19.952H172.441Z"/>
</mask>
<path d="M104.331 20.2603C101.288 20.2603 98.6978 18.5334 98.6978 14.3806C98.6978 10.1249 101.597 5.25254 106.448 5.25254C109.327 5.25254 112.164 6.85612 111.876 10.4128H109.265C109.347 8.3569 107.846 7.61679 106.428 7.61679C103.324 7.61679 101.37 11.1734 101.37 14.2778C101.37 16.9093 102.748 17.8961 104.372 17.8961C105.976 17.8961 107.291 16.8887 107.888 15.1412H110.54C109.368 18.4923 107.271 20.2603 104.331 20.2603ZM120.542 19.952L122.31 13.5788H115.773L114.005 19.952H111.476L115.485 5.56092H118.014L116.431 11.2145H122.968L124.551 5.56092H127.08L123.071 19.952H120.542ZM131.386 20.2809C127.83 20.2809 125.815 17.4027 127.953 13.8255L133.011 5.56092H136.135L130.317 14.874C129.454 16.4981 130.173 17.6083 131.777 17.6083C133.524 17.6083 134.594 16.4776 135.745 14.5862L141.234 5.56092H144.359L138.602 14.874C136.3 18.8007 134.635 20.2809 131.386 20.2809ZM138.549 19.952L147.224 5.56092H151.994C153.988 5.56092 155.921 6.50662 155.921 8.97366C155.921 11.5846 153.7 13.9488 149.733 14.3806L150.37 19.952H147.368L146.813 14.3395H145.045L141.653 19.952H138.549ZM146.608 11.7696H148.931C151.418 11.7696 152.878 10.6595 152.878 9.4465C152.878 8.68584 152.426 8.23355 151.357 8.23355H148.746L146.608 11.7696ZM157.337 20.2809C155.26 20.2809 154.541 19.3146 154.541 17.9578C154.541 13.0648 162.888 5.23199 169.446 5.23199C171.933 5.23199 173.804 7.14394 171.399 10.4539H168.479C170.001 8.19243 169.343 7.63735 168.459 7.63735C164.614 7.63735 157.522 14.1544 157.522 17.1766C157.522 17.6083 157.727 17.8755 158.282 17.8755C159.578 17.8755 161.284 16.971 162.785 15.4907H166.341C163.401 18.4101 160.667 20.2809 157.337 20.2809ZM172.441 19.952L178.752 13.6405H173.839L167.527 19.952H164.012L178.403 5.56092H181.918L176.265 11.2145H181.178L186.832 5.56092H190.347L175.956 19.952H172.441Z" fill="black"/>
<path d="M111.876 10.4128V15.6448C114.602 15.6448 116.871 13.5518 117.091 10.8348L111.876 10.4128ZM109.265 10.4128L104.037 10.2036C103.98 11.6264 104.506 13.0109 105.492 14.0377C106.479 15.0644 107.841 15.6448 109.265 15.6448V10.4128ZM107.888 15.1412V9.90923C105.649 9.90923 103.659 11.3333 102.936 13.4518L107.888 15.1412ZM110.54 15.1412L115.478 16.8683C116.038 15.268 115.788 13.4957 114.806 12.1132C113.825 10.7307 112.235 9.90923 110.54 9.90923V15.1412ZM104.331 20.2603V15.0283C103.752 15.0283 103.743 14.868 103.926 15.037C104.015 15.119 104.038 15.1854 104.026 15.1531C104.007 15.1055 103.93 14.8776 103.93 14.3806H98.6978H93.4658C93.4658 17.5894 94.5042 20.5759 96.8206 22.7186C99.0592 24.7893 101.867 25.4924 104.331 25.4924V20.2603ZM98.6978 14.3806H103.93C103.93 13.3452 104.31 12.1873 104.918 11.3882C105.463 10.6716 105.966 10.4846 106.448 10.4846V5.25254V0.0205281C102.079 0.0205281 98.7067 2.26968 96.5895 5.05319C94.5349 7.75425 93.4658 11.1603 93.4658 14.3806H98.6978ZM106.448 5.25254V10.4846C106.693 10.4846 106.885 10.5199 107.006 10.5574C107.128 10.5951 107.118 10.6152 107.036 10.5478C106.992 10.5123 106.934 10.4562 106.874 10.3768C106.813 10.296 106.761 10.2062 106.723 10.1148C106.685 10.0234 106.67 9.95378 106.665 9.91988C106.661 9.88763 106.668 9.90727 106.661 9.99074L111.876 10.4128L117.091 10.8348C117.368 7.40798 116.074 4.42312 113.663 2.45C111.463 0.649178 108.756 0.0205281 106.448 0.0205281V5.25254ZM111.876 10.4128V5.18074H109.265V10.4128V15.6448H111.876V10.4128ZM109.265 10.4128L114.493 10.6219C114.592 8.14144 113.675 5.7863 111.715 4.18848C109.968 2.76424 107.938 2.38477 106.428 2.38477V7.61679V12.8488C106.337 12.8488 105.766 12.8394 105.103 12.2992C104.74 12.0033 104.43 11.6045 104.236 11.1429C104.046 10.6937 104.032 10.3433 104.037 10.2036L109.265 10.4128ZM106.428 7.61679V2.38477C102.652 2.38477 99.952 4.59156 98.4209 6.82312C96.9121 9.0221 96.1384 11.7317 96.1384 14.2778H101.37H106.602C106.602 14.0371 106.642 13.74 106.734 13.4344C106.827 13.1276 106.947 12.8919 107.049 12.7432C107.153 12.5916 107.184 12.6069 107.073 12.6749C106.933 12.7612 106.696 12.8488 106.428 12.8488V7.61679ZM101.37 14.2778H96.1384C96.1384 16.4707 96.7214 18.8394 98.4707 20.6791C100.241 22.5406 102.508 23.1281 104.372 23.1281V17.8961V12.6641C104.612 12.6641 105.378 12.7582 106.054 13.4684C106.708 14.1568 106.602 14.7163 106.602 14.2778H101.37ZM104.372 17.8961V23.1281C108.553 23.1281 111.636 20.3576 112.839 16.8307L107.888 15.1412L102.936 13.4518C102.918 13.5028 102.982 13.2882 103.293 13.046C103.626 12.7865 104.033 12.6641 104.372 12.6641V17.8961ZM107.888 15.1412V20.3733H110.54V15.1412V9.90923H107.888V15.1412ZM110.54 15.1412L105.601 13.4142C105.23 14.4734 104.865 14.8419 104.759 14.9299C104.711 14.9695 104.684 14.9809 104.661 14.989C104.633 14.9987 104.536 15.0283 104.331 15.0283V20.2603V25.4924C106.93 25.4924 109.393 24.6803 111.438 22.9849C113.408 21.3512 114.677 19.1602 115.478 16.8683L110.54 15.1412ZM120.542 19.952L115.501 18.5533C115.064 20.1285 115.388 21.8174 116.378 23.1187C117.367 24.4199 118.908 25.184 120.542 25.184V19.952ZM122.31 13.5788L127.352 14.9774C127.789 13.4022 127.465 11.7133 126.475 10.4121C125.486 9.11081 123.945 8.34677 122.31 8.34677V13.5788ZM115.773 13.5788V8.34677C113.422 8.34677 111.36 9.9148 110.731 12.1802L115.773 13.5788ZM114.005 19.952V25.184C116.356 25.184 118.418 23.616 119.046 21.3506L114.005 19.952ZM111.476 19.952L106.436 18.5479C105.997 20.1236 106.32 21.8139 107.309 23.1165C108.299 24.419 109.84 25.184 111.476 25.184V19.952ZM115.485 5.56092V0.328907C113.136 0.328907 111.075 1.89422 110.445 4.15689L115.485 5.56092ZM118.014 5.56092L123.052 6.97163C123.493 5.39537 123.171 3.70338 122.182 2.39919C121.193 1.09499 119.651 0.328907 118.014 0.328907V5.56092ZM116.431 11.2145L111.392 9.80384C110.951 11.3801 111.273 13.0721 112.262 14.3763C113.251 15.6805 114.794 16.4466 116.431 16.4466V11.2145ZM122.968 11.2145V16.4466C125.315 16.4466 127.374 14.8846 128.007 12.6253L122.968 11.2145ZM124.551 5.56092V0.328907C122.205 0.328907 120.146 1.89085 119.513 4.15022L124.551 5.56092ZM127.08 5.56092L132.12 6.96495C132.559 5.38928 132.236 3.699 131.247 2.39643C130.257 1.09386 128.716 0.328907 127.08 0.328907V5.56092ZM123.071 19.952V25.184C125.42 25.184 127.481 23.6187 128.111 21.356L123.071 19.952ZM120.542 19.952L125.584 21.3506L127.352 14.9774L122.31 13.5788L117.269 12.1802L115.501 18.5533L120.542 19.952ZM122.31 13.5788V8.34677H115.773V13.5788V18.8108H122.31V13.5788ZM115.773 13.5788L110.731 12.1802L108.963 18.5533L114.005 19.952L119.046 21.3506L120.814 14.9774L115.773 13.5788ZM114.005 19.952V14.7199H111.476V19.952V25.184H114.005V19.952ZM111.476 19.952L116.516 21.356L120.525 6.96495L115.485 5.56092L110.445 4.15689L106.436 18.5479L111.476 19.952ZM115.485 5.56092V10.7929H118.014V5.56092V0.328907H115.485V5.56092ZM118.014 5.56092L112.975 4.15022L111.392 9.80384L116.431 11.2145L121.469 12.6253L123.052 6.97163L118.014 5.56092ZM116.431 11.2145V16.4466H122.968V11.2145V5.98253H116.431V11.2145ZM122.968 11.2145L128.007 12.6253L129.59 6.97163L124.551 5.56092L119.513 4.15022L117.93 9.80384L122.968 11.2145ZM124.551 5.56092V10.7929H127.08V5.56092V0.328907H124.551V5.56092ZM127.08 5.56092L122.04 4.15689L118.031 18.5479L123.071 19.952L128.111 21.356L132.12 6.96495L127.08 5.56092ZM123.071 19.952V14.7199H120.542V19.952V25.184H123.071V19.952ZM127.953 13.8255L123.49 11.0946C123.481 11.1101 123.471 11.1256 123.462 11.1412L127.953 13.8255ZM133.011 5.56092V0.328907C131.189 0.328907 129.499 1.27629 128.548 2.82999L133.011 5.56092ZM136.135 5.56092L140.573 8.33301C141.58 6.7201 141.633 4.68744 140.711 3.02415C139.789 1.36086 138.037 0.328907 136.135 0.328907V5.56092ZM130.317 14.874L125.88 12.1019C125.816 12.2051 125.755 12.3105 125.698 12.4179L130.317 14.874ZM135.745 14.5862L140.214 17.3065L140.215 17.3049L135.745 14.5862ZM141.234 5.56092V0.328907C139.407 0.328907 137.713 1.28154 136.764 2.84217L141.234 5.56092ZM144.359 5.56092L148.809 8.31177C149.807 6.69788 149.853 4.6704 148.929 3.01323C148.005 1.35606 146.256 0.328907 144.359 0.328907V5.56092ZM138.602 14.874L134.152 12.1231C134.131 12.1577 134.11 12.1924 134.089 12.2274L138.602 14.874ZM131.386 20.2809V15.0489C130.96 15.0489 131.565 14.9216 132.053 15.7571C132.279 16.145 132.321 16.513 132.306 16.7228C132.292 16.907 132.248 16.8371 132.444 16.5097L127.953 13.8255L123.462 11.1412C121.711 14.071 121.114 17.7745 123.016 21.0321C124.865 24.2011 128.256 25.5129 131.386 25.5129V20.2809ZM127.953 13.8255L132.416 16.5564L137.473 8.29185L133.011 5.56092L128.548 2.82999L123.49 11.0946L127.953 13.8255ZM133.011 5.56092V10.7929H136.135V5.56092V0.328907H133.011V5.56092ZM136.135 5.56092L131.698 2.78884L125.88 12.1019L130.317 14.874L134.755 17.6461L140.573 8.33301L136.135 5.56092ZM130.317 14.874L125.698 12.4179C124.834 14.0423 124.059 16.7634 125.57 19.4302C127.115 22.1545 129.908 22.8403 131.777 22.8403V17.6083V12.3763C132.042 12.3763 133.674 12.507 134.674 14.2701C135.641 15.9759 134.937 17.3298 134.937 17.33L130.317 14.874ZM131.777 17.6083V22.8403C136.54 22.8403 138.964 19.3597 140.214 17.3065L135.745 14.5862L131.276 11.8658C131.048 12.24 130.88 12.4838 130.756 12.6434C130.632 12.802 130.598 12.8176 130.656 12.7696C130.727 12.7108 130.893 12.5933 131.146 12.4991C131.404 12.4029 131.632 12.3763 131.777 12.3763V17.6083ZM135.745 14.5862L140.215 17.3049L145.704 8.27968L141.234 5.56092L136.764 2.84217L131.275 11.8674L135.745 14.5862ZM141.234 5.56092V10.7929H144.359V5.56092V0.328907H141.234V5.56092ZM144.359 5.56092L139.908 2.81007L134.152 12.1231L138.602 14.874L143.053 17.6248L148.809 8.31177L144.359 5.56092ZM138.602 14.874L134.089 12.2274C132.998 14.0882 132.42 14.7003 132.143 14.9154C132.063 14.9776 132.038 14.9827 132.018 14.9886C131.977 15.0014 131.802 15.0489 131.386 15.0489V20.2809V25.5129C133.935 25.5129 136.357 24.889 138.555 23.1845C140.498 21.6778 141.904 19.5865 143.116 17.5205L138.602 14.874ZM138.549 19.952L134.068 17.2507C133.094 18.8667 133.065 20.882 133.993 22.525C134.921 24.168 136.662 25.184 138.549 25.184V19.952ZM147.224 5.56092V0.328907C145.39 0.328907 143.69 1.28909 142.744 2.85967L147.224 5.56092ZM149.733 14.3806L149.167 9.17926C147.782 9.3299 146.515 10.0263 145.645 11.1141C144.776 12.202 144.376 13.5916 144.534 14.9752L149.733 14.3806ZM150.37 19.952V25.184C151.861 25.184 153.281 24.5477 154.274 23.435C155.267 22.3223 155.737 20.8389 155.568 19.3573L150.37 19.952ZM147.368 19.952L142.162 20.4669C142.426 23.144 144.678 25.184 147.368 25.184V19.952ZM146.813 14.3395L152.02 13.8245C151.755 11.1474 149.503 9.10744 146.813 9.10744V14.3395ZM145.045 14.3395V9.10744C143.213 9.10744 141.515 10.0654 140.567 11.6332L145.045 14.3395ZM141.653 19.952V25.184C143.485 25.184 145.183 24.226 146.131 22.6583L141.653 19.952ZM146.608 11.7696L142.13 9.06248C141.153 10.6782 141.123 12.695 142.05 14.3397C142.978 15.9843 144.719 17.0016 146.608 17.0016V11.7696ZM148.746 8.23355V3.00153C146.914 3.00153 145.216 3.95917 144.269 5.5264L148.746 8.23355ZM138.549 19.952L143.029 22.6532L151.705 8.26218L147.224 5.56092L142.744 2.85967L134.068 17.2507L138.549 19.952ZM147.224 5.56092V10.7929H151.994V5.56092V0.328907H147.224V5.56092ZM151.994 5.56092V10.7929C152.269 10.7929 152.03 10.8727 151.582 10.5401C151.325 10.3482 151.064 10.0604 150.885 9.69218C150.708 9.32936 150.689 9.0519 150.689 8.97366H155.921H161.153C161.153 6.18127 159.962 3.7317 157.828 2.1442C155.916 0.722028 153.714 0.328907 151.994 0.328907V5.56092ZM155.921 8.97366H150.689C150.689 8.87488 150.712 8.77581 150.747 8.69792C150.781 8.62244 150.806 8.61296 150.763 8.65198C150.681 8.72825 150.249 9.06148 149.167 9.17926L149.733 14.3806L150.299 19.5819C156.005 18.9609 161.153 15.085 161.153 8.97366H155.921ZM149.733 14.3806L144.534 14.9752L145.172 20.5466L150.37 19.952L155.568 19.3573L154.931 13.786L149.733 14.3806ZM150.37 19.952V14.7199H147.368V19.952V25.184H150.37V19.952ZM147.368 19.952L152.575 19.437L152.02 13.8245L146.813 14.3395L141.607 14.8544L142.162 20.4669L147.368 19.952ZM146.813 14.3395V9.10744H145.045V14.3395V19.5715H146.813V14.3395ZM145.045 14.3395L140.567 11.6332L137.175 17.2457L141.653 19.952L146.131 22.6583L149.523 17.0458L145.045 14.3395ZM141.653 19.952V14.7199H138.549V19.952V25.184H141.653V19.952ZM146.608 11.7696V17.0016H148.931V11.7696V6.53761H146.608V11.7696ZM148.931 11.7696V17.0016C150.896 17.0016 152.924 16.5703 154.642 15.4797C156.355 14.392 158.11 12.3414 158.11 9.4465H152.878H147.646C147.646 7.76453 148.671 6.87554 149.033 6.64611C149.398 6.41389 149.453 6.53761 148.931 6.53761V11.7696ZM152.878 9.4465H158.11C158.11 7.99988 157.638 6.02863 155.892 4.55599C154.316 3.22608 152.505 3.00153 151.357 3.00153V8.23355V13.4656C151.278 13.4656 150.227 13.4672 149.144 12.5536C147.892 11.4972 147.646 10.1325 147.646 9.4465H152.878ZM151.357 8.23355V3.00153H148.746V8.23355V13.4656H151.357V8.23355ZM148.746 8.23355L144.269 5.5264L142.13 9.06248L146.608 11.7696L151.085 14.4768L153.223 10.9407L148.746 8.23355ZM171.399 10.4539V15.6859C173.073 15.6859 174.647 14.8843 175.631 13.5296L171.399 10.4539ZM168.479 10.4539L164.138 7.53349C163.059 9.13773 162.953 11.2064 163.861 12.913C164.77 14.6196 166.546 15.6859 168.479 15.6859V10.4539ZM162.785 15.4907V10.2587C161.41 10.2587 160.09 10.8001 159.111 11.7657L162.785 15.4907ZM166.341 15.4907L170.028 19.2033C171.532 17.7099 171.986 15.4566 171.179 13.497C170.371 11.5374 168.461 10.2587 166.341 10.2587V15.4907ZM157.337 20.2809V15.0489C157.014 15.0489 157.835 14.9662 158.735 15.8077C159.701 16.7119 159.773 17.7469 159.773 17.9578H154.541H149.309C149.309 19.5255 149.74 21.7221 151.585 23.4486C153.364 25.1125 155.583 25.5129 157.337 25.5129V20.2809ZM154.541 17.9578H159.773C159.773 18.1079 159.761 17.6794 160.39 16.6691C160.964 15.7462 161.86 14.6872 163 13.6796C165.456 11.5073 167.988 10.464 169.446 10.464V5.23199V-3.02792e-05C164.346 -3.02792e-05 159.424 2.87311 156.068 5.8404C154.301 7.40271 152.701 9.21927 151.505 11.1412C150.364 12.9757 149.309 15.3611 149.309 17.9578H154.541ZM169.446 5.23199V10.464C169.424 10.464 169.22 10.4632 168.899 10.3109C168.561 10.1507 168.025 9.78109 167.646 9.07348C167.247 8.33028 167.247 7.63432 167.32 7.25343C167.381 6.93724 167.459 6.97492 167.166 7.37812L171.399 10.4539L175.631 13.5296C177.368 11.1394 178.721 7.58668 176.868 4.12993C175.138 0.900763 171.766 -3.02792e-05 169.446 -3.02792e-05V5.23199ZM171.399 10.4539V5.22186H168.479V10.4539V15.6859H171.399V10.4539ZM168.479 10.4539L172.821 13.3743C173.331 12.6151 173.81 11.7813 174.143 10.8931C174.453 10.0635 174.813 8.71928 174.5 7.16547C174.132 5.33501 172.976 3.93204 171.53 3.15307C170.306 2.49377 169.126 2.40533 168.459 2.40533V7.63735V12.8694C168.233 12.8694 167.468 12.8503 166.568 12.3658C165.446 11.7615 164.525 10.6387 164.242 9.22966C164.014 8.0973 164.309 7.31584 164.342 7.22639C164.397 7.0783 164.388 7.16196 164.138 7.53349L168.479 10.4539ZM168.459 7.63735V2.40533C166.204 2.40533 164.119 3.29296 162.621 4.11068C161.002 4.9948 159.432 6.15234 158.069 7.36639C156.71 8.57685 155.41 9.97275 154.403 11.4112C153.557 12.6205 152.29 14.7255 152.29 17.1765H157.522H162.754C162.754 17.763 162.599 18.0631 162.639 17.9697C162.662 17.9152 162.756 17.7265 162.977 17.411C163.42 16.7775 164.134 15.9775 165.028 15.1809C165.919 14.3879 166.843 13.7273 167.635 13.295C168.549 12.7964 168.791 12.8694 168.459 12.8694V7.63735ZM157.522 17.1765H152.29C152.29 18.1389 152.517 19.91 153.994 21.3875C155.468 22.8616 157.251 23.1076 158.282 23.1076V17.8755V12.6435C158.758 12.6435 160.161 12.7558 161.393 13.9884C162.629 15.2243 162.754 16.646 162.754 17.1765H157.522ZM158.282 17.8755V23.1076C161.602 23.1076 164.567 21.0819 166.459 19.2158L162.785 15.4907L159.111 11.7657C158.672 12.1989 158.274 12.4735 158.007 12.615C157.878 12.6834 157.82 12.6989 157.84 12.6932C157.854 12.6891 158.009 12.6435 158.282 12.6435V17.8755ZM162.785 15.4907V20.7228H166.341V15.4907V10.2587H162.785V15.4907ZM166.341 15.4907L162.655 11.7782C159.925 14.489 158.487 15.0489 157.337 15.0489V20.2809V25.5129C162.847 25.5129 166.878 22.3312 170.028 19.2033L166.341 15.4907ZM172.441 19.952L168.741 16.2524C167.245 17.7487 166.797 19.9991 167.607 21.9542C168.417 23.9092 170.325 25.184 172.441 25.184V19.952ZM178.752 13.6405L182.452 17.3401C183.948 15.8437 184.396 13.5933 183.586 11.6383C182.776 9.68319 180.868 8.40845 178.752 8.40845V13.6405ZM173.839 13.6405V8.40845C172.451 8.40845 171.12 8.95968 170.139 9.94087L173.839 13.6405ZM167.527 19.952V25.184C168.915 25.184 170.246 24.6328 171.227 23.6516L167.527 19.952ZM164.012 19.952L160.312 16.2524C158.816 17.7487 158.368 19.9991 159.178 21.9542C159.988 23.9092 161.896 25.184 164.012 25.184V19.952ZM178.403 5.56092V0.328907C177.015 0.328907 175.684 0.880136 174.703 1.86133L178.403 5.56092ZM181.918 5.56092L185.618 9.26052C187.114 7.76417 187.562 5.51379 186.752 3.55872C185.942 1.60365 184.035 0.328907 181.918 0.328907V5.56092ZM176.265 11.2145L172.565 7.51495C171.069 9.0113 170.621 11.2617 171.431 13.2168C172.241 15.1718 174.149 16.4466 176.265 16.4466V11.2145ZM181.178 11.2145V16.4466C182.566 16.4466 183.897 15.8953 184.878 14.9141L181.178 11.2145ZM186.832 5.56092V0.328907C185.444 0.328907 184.113 0.880136 183.132 1.86133L186.832 5.56092ZM190.347 5.56092L194.047 9.26052C195.543 7.76417 195.991 5.51379 195.181 3.55872C194.371 1.60365 192.464 0.328907 190.347 0.328907V5.56092ZM175.956 19.952V25.184C177.344 25.184 178.675 24.6328 179.656 23.6516L175.956 19.952ZM172.441 19.952L176.14 23.6516L182.452 17.3401L178.752 13.6405L175.053 9.94087L168.741 16.2524L172.441 19.952ZM178.752 13.6405V8.40845H173.839V13.6405V18.8725H178.752V13.6405ZM173.839 13.6405L170.139 9.94087L163.828 16.2524L167.527 19.952L171.227 23.6516L177.538 17.3401L173.839 13.6405ZM167.527 19.952V14.7199H164.012V19.952V25.184H167.527V19.952ZM164.012 19.952L167.711 23.6516L182.102 9.26052L178.403 5.56092L174.703 1.86133L160.312 16.2524L164.012 19.952ZM178.403 5.56092V10.7929H181.918V5.56092V0.328907H178.403V5.56092ZM181.918 5.56092L178.219 1.86133L172.565 7.51495L176.265 11.2145L179.964 14.9141L185.618 9.26052L181.918 5.56092ZM176.265 11.2145V16.4466H181.178V11.2145V5.98253H176.265V11.2145ZM181.178 11.2145L184.878 14.9141L190.531 9.26052L186.832 5.56092L183.132 1.86133L177.479 7.51495L181.178 11.2145ZM186.832 5.56092V10.7929H190.347V5.56092V0.328907H186.832V5.56092ZM190.347 5.56092L186.648 1.86133L172.257 16.2524L175.956 19.952L179.656 23.6516L194.047 9.26052L190.347 5.56092ZM175.956 19.952V14.7199H172.441V19.952V25.184H175.956V19.952Z" fill="#C4C5C9" mask="url(#path-1-outside-1_358_5986)"/>
<mask id="path-3-outside-2_358_5986" maskUnits="userSpaceOnUse" x="-0.0791016" y="-0.0480347" width="103" height="26" fill="black">
<rect fill="white" x="-0.0791016" y="-0.0480347" width="103" height="26"/>
<path d="M19.623 19.952L5.23197 5.56092H11.1117C16.4159 5.56092 21.0004 8.50081 21.0004 12.0575C21.0004 13.5788 20.0342 14.5862 18.0606 14.5862H17.7727L23.1385 19.952H19.623ZM11.1323 7.96628L15.3263 12.1602H17.156C17.7727 12.1602 18.0194 11.9341 18.0194 11.4818C18.0194 9.59042 15.1412 7.96628 12.0163 7.96628H11.1323ZM32.367 19.952L17.9759 5.56092H24.0613C29.3654 5.56092 33.95 8.39801 33.95 11.8519C33.95 12.3247 33.8472 12.7564 33.6827 13.1059L44.2498 19.952H39.9736L30.9895 14.2983H30.2289L35.8825 19.952H32.367ZM23.8762 7.96628L27.8646 11.9547H30.1055C30.7223 11.9547 30.969 11.7285 30.969 11.2762C30.969 9.48762 28.0908 7.96628 24.9658 7.96628H23.8762ZM44.0804 19.952L35.3841 5.56092H38.509L47.1847 19.952H44.0804ZM53.7934 19.952L40.2041 5.56092H43.9869L53.6906 16.2925L50.9152 5.56092H53.9167L57.7201 19.952H53.7934ZM60.7012 19.952L57.3091 5.56092L61.2974 5.56092L75.2979 19.952H71.5973L68.1229 16.2103H62.7777L63.6822 19.952H60.7012ZM60.8657 8.43913L62.1403 13.6199H65.697L60.8657 8.43913ZM80.4252 20.2809C75.45 20.2809 72.5101 15.4907 72.5101 11.1529C72.5101 6.91779 75.1622 5.23199 77.9787 5.23199C80.9186 5.23199 83.2006 6.48606 84.5574 10.2689H81.4737C80.9186 8.76807 79.7262 8.0074 78.3487 8.0074C76.8685 8.0074 75.6556 8.78863 75.6556 11.2557C75.6556 14.1544 77.4236 17.5055 80.3635 17.5055C81.6587 17.5055 82.9333 16.7654 82.7277 14.7917H85.8115C86.2021 18.5334 83.3034 20.2809 80.4252 20.2809ZM93.0637 19.952L91.3779 13.99L83.5862 5.56092H87.369L92.3031 11.009L94.3178 5.56092H97.4633L94.3384 13.99L96.0242 19.952H93.0637Z"/>
</mask>
<path d="M19.623 19.952L5.23197 5.56092H11.1117C16.4159 5.56092 21.0004 8.50081 21.0004 12.0575C21.0004 13.5788 20.0342 14.5862 18.0606 14.5862H17.7727L23.1385 19.952H19.623ZM11.1323 7.96628L15.3263 12.1602H17.156C17.7727 12.1602 18.0194 11.9341 18.0194 11.4818C18.0194 9.59042 15.1412 7.96628 12.0163 7.96628H11.1323ZM32.367 19.952L17.9759 5.56092H24.0613C29.3654 5.56092 33.95 8.39801 33.95 11.8519C33.95 12.3247 33.8472 12.7564 33.6827 13.1059L44.2498 19.952H39.9736L30.9895 14.2983H30.2289L35.8825 19.952H32.367ZM23.8762 7.96628L27.8646 11.9547H30.1055C30.7223 11.9547 30.969 11.7285 30.969 11.2762C30.969 9.48762 28.0908 7.96628 24.9658 7.96628H23.8762ZM44.0804 19.952L35.3841 5.56092H38.509L47.1847 19.952H44.0804ZM53.7934 19.952L40.2041 5.56092H43.9869L53.6906 16.2925L50.9152 5.56092H53.9167L57.7201 19.952H53.7934ZM60.7012 19.952L57.3091 5.56092L61.2974 5.56092L75.2979 19.952H71.5973L68.1229 16.2103H62.7777L63.6822 19.952H60.7012ZM60.8657 8.43913L62.1403 13.6199H65.697L60.8657 8.43913ZM80.4252 20.2809C75.45 20.2809 72.5101 15.4907 72.5101 11.1529C72.5101 6.91779 75.1622 5.23199 77.9787 5.23199C80.9186 5.23199 83.2006 6.48606 84.5574 10.2689H81.4737C80.9186 8.76807 79.7262 8.0074 78.3487 8.0074C76.8685 8.0074 75.6556 8.78863 75.6556 11.2557C75.6556 14.1544 77.4236 17.5055 80.3635 17.5055C81.6587 17.5055 82.9333 16.7654 82.7277 14.7917H85.8115C86.2021 18.5334 83.3034 20.2809 80.4252 20.2809ZM93.0637 19.952L91.3779 13.99L83.5862 5.56092H87.369L92.3031 11.009L94.3178 5.56092H97.4633L94.3384 13.99L96.0242 19.952H93.0637Z" fill="black"/>
<path d="M19.623 19.952L15.9234 23.6516C16.9046 24.6328 18.2354 25.184 19.623 25.184V19.952ZM5.23197 5.56092V0.328907C3.11582 0.328907 1.20803 1.60365 0.398218 3.55872C-0.411599 5.51379 0.0360308 7.76417 1.53238 9.26052L5.23197 5.56092ZM17.7727 14.5862V9.35415C15.6566 9.35415 13.7488 10.6289 12.939 12.584C12.1292 14.539 12.5768 16.7894 14.0731 18.2858L17.7727 14.5862ZM23.1385 19.952V25.184C25.2547 25.184 27.1625 23.9092 27.9723 21.9542C28.7821 19.9991 28.3345 17.7487 26.8381 16.2524L23.1385 19.952ZM11.1323 7.96628V2.73427C9.01614 2.73427 7.10836 4.00901 6.29854 5.96408C5.48873 7.91915 5.93636 10.1695 7.4327 11.6659L11.1323 7.96628ZM15.3263 12.1602L11.6267 15.8598C12.6079 16.841 13.9386 17.3923 15.3263 17.3923V12.1602ZM19.623 19.952L23.3226 16.2524L8.93156 1.86133L5.23197 5.56092L1.53238 9.26052L15.9234 23.6516L19.623 19.952ZM5.23197 5.56092V10.7929H11.1117V5.56092V0.328907H5.23197V5.56092ZM11.1117 5.56092V10.7929C12.8557 10.7929 14.3136 11.2883 15.1876 11.8582C16.143 12.4811 15.7684 12.6845 15.7684 12.0575H21.0004H26.2325C26.2325 7.87371 23.5656 4.82891 20.9026 3.09268C18.1584 1.30345 14.6719 0.328907 11.1117 0.328907V5.56092ZM21.0004 12.0575H15.7684C15.7684 11.6794 15.9234 10.7703 16.7593 10.0135C17.5262 9.31931 18.2082 9.35415 18.0606 9.35415V14.5862V19.8182C19.8865 19.8182 22.0385 19.3493 23.7819 17.7711C25.5944 16.1303 26.2325 13.9568 26.2325 12.0575H21.0004ZM18.0606 14.5862V9.35415H17.7727V14.5862V19.8182H18.0606V14.5862ZM17.7727 14.5862L14.0731 18.2858L19.4389 23.6516L23.1385 19.952L26.8381 16.2524L21.4723 10.8866L17.7727 14.5862ZM23.1385 19.952V14.7199H19.623V19.952V25.184H23.1385V19.952ZM11.1323 7.96628L7.4327 11.6659L11.6267 15.8598L15.3263 12.1602L19.0259 8.46065L14.8319 4.26669L11.1323 7.96628ZM15.3263 12.1602V17.3923H17.156V12.1602V6.92823H15.3263V12.1602ZM17.156 12.1602V17.3923C17.9187 17.3923 19.601 17.2876 21.1239 16.0467C22.8945 14.6039 23.2515 12.6579 23.2515 11.4818H18.0194H12.7874C12.7874 10.758 13.021 9.15118 14.5141 7.9346C15.7595 6.91983 17.01 6.92823 17.156 6.92823V12.1602ZM18.0194 11.4818H23.2515C23.2515 7.75517 20.5482 5.4921 18.8103 4.48637C16.8341 3.34274 14.4151 2.73427 12.0163 2.73427V7.96628V13.1983C12.351 13.1983 12.6805 13.2427 12.9735 13.3178C13.2721 13.3943 13.4722 13.4871 13.5691 13.5432C13.6843 13.6098 13.5577 13.566 13.3592 13.3054C13.1443 13.0233 12.7874 12.3941 12.7874 11.4818H18.0194ZM12.0163 7.96628V2.73427H11.1323V7.96628V13.1983H12.0163V7.96628ZM32.367 19.952L28.6674 23.6516C29.6486 24.6328 30.9793 25.184 32.367 25.184V19.952ZM17.9759 5.56092V0.328907C15.8598 0.328907 13.952 1.60365 13.1422 3.55872C12.3323 5.51379 12.78 7.76417 14.2763 9.26052L17.9759 5.56092ZM33.6827 13.1059L28.9487 10.8782C27.8342 13.2464 28.6413 16.0738 30.8379 17.497L33.6827 13.1059ZM44.2498 19.952V25.184C46.5681 25.184 48.61 23.6584 49.2672 21.4352C49.9244 19.212 49.0403 16.8214 47.0946 15.5609L44.2498 19.952ZM39.9736 19.952L37.187 24.3801C38.0216 24.9053 38.9876 25.184 39.9736 25.184V19.952ZM30.9895 14.2983L33.7761 9.87016C32.9416 9.34498 31.9756 9.06633 30.9895 9.06633V14.2983ZM30.2289 14.2983V9.06633C28.1127 9.06633 26.2049 10.3411 25.3951 12.2961C24.5853 14.2512 25.0329 16.5016 26.5293 17.9979L30.2289 14.2983ZM35.8825 19.952V25.184C37.9986 25.184 39.9064 23.9092 40.7162 21.9542C41.526 19.9991 41.0784 17.7487 39.5821 16.2524L35.8825 19.952ZM23.8762 7.96628V2.73427C21.7601 2.73427 19.8523 4.00901 19.0425 5.96408C18.2327 7.91915 18.6803 10.1695 20.1766 11.6659L23.8762 7.96628ZM27.8646 11.9547L24.165 15.6543C25.1462 16.6354 26.477 17.1867 27.8646 17.1867V11.9547ZM32.367 19.952L36.0665 16.2524L21.6755 1.86133L17.9759 5.56092L14.2763 9.26052L28.6674 23.6516L32.367 19.952ZM17.9759 5.56092V10.7929H24.0613V5.56092V0.328907L17.9759 0.328907V5.56092ZM24.0613 5.56092V10.7929C25.8421 10.7929 27.3235 11.2815 28.2036 11.8366C29.1839 12.4548 28.718 12.6087 28.718 11.8519H33.95H39.182C39.182 7.64116 36.4238 4.64959 33.7857 2.9858C31.0475 1.25889 27.5845 0.328907 24.0613 0.328907V5.56092ZM33.95 11.8519H28.718C28.718 11.5822 28.7736 11.2502 28.9487 10.8782L33.6827 13.1059L38.4167 15.3337C38.9207 14.2627 39.182 13.0672 39.182 11.8519H33.95ZM33.6827 13.1059L30.8379 17.497L41.4051 24.343L44.2498 19.952L47.0946 15.5609L36.5275 8.7149L33.6827 13.1059ZM44.2498 19.952V14.7199H39.9736V19.952V25.184H44.2498V19.952ZM39.9736 19.952L42.7603 15.5238L33.7761 9.87016L30.9895 14.2983L28.2029 18.7265L37.187 24.3801L39.9736 19.952ZM30.9895 14.2983V9.06633H30.2289V14.2983V19.5304H30.9895V14.2983ZM30.2289 14.2983L26.5293 17.9979L32.1829 23.6516L35.8825 19.952L39.5821 16.2524L33.9284 10.5987L30.2289 14.2983ZM35.8825 19.952V14.7199H32.367V19.952V25.184H35.8825V19.952ZM23.8762 7.96628L20.1766 11.6659L24.165 15.6543L27.8646 11.9547L31.5642 8.25506L27.5758 4.26669L23.8762 7.96628ZM27.8646 11.9547V17.1867H30.1055V11.9547V6.72264H27.8646V11.9547ZM30.1055 11.9547V17.1867C30.8682 17.1867 32.5505 17.082 34.0734 15.8411C35.8441 14.3984 36.201 12.4523 36.201 11.2762H30.969H25.737C25.737 10.5525 25.9705 8.94559 27.4636 7.72901C28.709 6.71425 29.9595 6.72264 30.1055 6.72264V11.9547ZM30.969 11.2762H36.201C36.201 7.44436 33.2897 5.25227 31.6394 4.35452C29.6813 3.28936 27.305 2.73427 24.9658 2.73427V7.96628V13.1983C25.7516 13.1983 26.3769 13.4039 26.6391 13.5465C26.7662 13.6157 26.6251 13.5701 26.4018 13.2939C26.1608 12.9958 25.737 12.3011 25.737 11.2762H30.969ZM24.9658 7.96628V2.73427H23.8762V7.96628V13.1983H24.9658V7.96628ZM44.0804 19.952L39.6025 22.6579C40.5499 24.2258 42.2484 25.184 44.0804 25.184V19.952ZM35.3841 5.56092V0.328907C33.4962 0.328907 31.7547 1.34597 30.8271 2.99028C29.8996 4.63458 29.9298 6.65108 30.9062 8.26687L35.3841 5.56092ZM38.509 5.56092L42.9898 2.85967C42.0429 1.28909 40.3429 0.328907 38.509 0.328907V5.56092ZM47.1847 19.952V25.184C49.0717 25.184 50.8124 24.168 51.7403 22.525C52.6683 20.882 52.6397 18.8667 51.6655 17.2507L47.1847 19.952ZM44.0804 19.952L48.5583 17.246L39.862 2.85498L35.3841 5.56092L30.9062 8.26687L39.6025 22.6579L44.0804 19.952ZM35.3841 5.56092V10.7929H38.509V5.56092V0.328907L35.3841 0.328907V5.56092ZM38.509 5.56092L34.0282 8.26218L42.704 22.6532L47.1847 19.952L51.6655 17.2507L42.9898 2.85967L38.509 5.56092ZM47.1847 19.952V14.7199H44.0804V19.952V25.184H47.1847V19.952ZM53.7934 19.952L49.9893 23.5441C50.9777 24.5908 52.3538 25.184 53.7934 25.184V19.952ZM40.2041 5.56092V0.328907C38.1152 0.328907 36.2265 1.57144 35.3995 3.48969C34.5726 5.40793 34.9659 7.63425 36.4001 9.15303L40.2041 5.56092ZM43.9869 5.56092L47.8677 2.05186C46.8758 0.954854 45.4659 0.328907 43.9869 0.328907V5.56092ZM53.6906 16.2925L49.8098 19.8016C51.4252 21.5881 54.0514 22.041 56.1719 20.8988C58.2923 19.7565 59.359 17.3143 58.756 14.9825L53.6906 16.2925ZM50.9152 5.56092V0.328907C49.2966 0.328907 47.7692 1.07802 46.7783 2.3578C45.7874 3.63758 45.4446 5.30393 45.8498 6.87093L50.9152 5.56092ZM53.9167 5.56092L58.9751 4.22408C58.3683 1.92821 56.2914 0.328907 53.9167 0.328907V5.56092ZM57.7201 19.952V25.184C59.3435 25.184 60.875 24.4304 61.8655 23.1441C62.8559 21.8578 63.1932 20.1847 62.7784 18.6151L57.7201 19.952ZM53.7934 19.952L57.5974 16.3599L44.0082 1.96882L40.2041 5.56092L36.4001 9.15303L49.9893 23.5441L53.7934 19.952ZM40.2041 5.56092V10.7929H43.9869V5.56092V0.328907H40.2041V5.56092ZM43.9869 5.56092L40.1061 9.06998L49.8098 19.8016L53.6906 16.2925L57.5714 12.7835L47.8677 2.05186L43.9869 5.56092ZM53.6906 16.2925L58.756 14.9825L55.9805 4.25092L50.9152 5.56092L45.8498 6.87093L48.6252 17.6025L53.6906 16.2925ZM50.9152 5.56092V10.7929H53.9167V5.56092V0.328907L50.9152 0.328907V5.56092ZM53.9167 5.56092L48.8584 6.89777L52.6617 21.2888L57.7201 19.952L62.7784 18.6151L58.9751 4.22408L53.9167 5.56092ZM57.7201 19.952V14.7199H53.7934V19.952V25.184H57.7201V19.952ZM60.7012 19.952L55.6088 21.1523C56.1656 23.5147 58.2741 25.184 60.7012 25.184V19.952ZM57.3091 5.56092V0.328907C55.7103 0.328907 54.1993 1.05987 53.207 2.31333C52.2146 3.5668 51.8498 5.2052 52.2166 6.76129L57.3091 5.56092ZM61.2974 5.56092L65.0476 1.91257C64.0626 0.900086 62.71 0.328907 61.2974 0.328907V5.56092ZM75.2979 19.952V25.184C77.4009 25.184 79.2996 23.9248 80.1177 21.9874C80.9359 20.05 80.5145 17.811 79.048 16.3036L75.2979 19.952ZM71.5973 19.952L67.7633 23.5121C68.7533 24.5782 70.1425 25.184 71.5973 25.184V19.952ZM68.1229 16.2103L71.9569 12.6502C70.9669 11.5841 69.5778 10.9783 68.1229 10.9783V16.2103ZM62.7777 16.2103V10.9783C61.1737 10.9783 59.6583 11.714 58.6663 12.9744C57.6743 14.2349 57.3152 15.8807 57.6922 17.4398L62.7777 16.2103ZM63.6822 19.952V25.184C65.2862 25.184 66.8016 24.4482 67.7936 23.1878C68.7856 21.9274 69.1447 20.2816 68.7678 18.7225L63.6822 19.952ZM60.8657 8.43913L64.6921 4.87086C63.0676 3.1288 60.4714 2.70394 58.3763 3.83729C56.2812 4.97064 55.2161 7.37609 55.7852 9.6891L60.8657 8.43913ZM62.1403 13.6199L57.0598 14.8699C57.6351 17.2082 59.7323 18.8519 62.1403 18.8519V13.6199ZM65.697 13.6199V18.8519C67.78 18.8519 69.6645 17.6164 70.4951 15.7061C71.3256 13.7959 70.944 11.575 69.5234 10.0516L65.697 13.6199ZM60.7012 19.952L65.7937 18.7516L62.4015 4.36056L57.3091 5.56092L52.2166 6.76129L55.6088 21.1523L60.7012 19.952ZM57.3091 5.56092V10.7929H61.2974V5.56092V0.328907H57.3091V5.56092ZM61.2974 5.56092L57.5473 9.20927L71.5477 23.6003L75.2979 19.952L79.048 16.3036L65.0476 1.91257L61.2974 5.56092ZM75.2979 19.952V14.7199H71.5973V19.952V25.184H75.2979V19.952ZM71.5973 19.952L75.4313 16.3918L71.9569 12.6502L68.1229 16.2103L64.2889 19.7704L67.7633 23.5121L71.5973 19.952ZM68.1229 16.2103V10.9783H62.7777V16.2103V21.4423H68.1229V16.2103ZM62.7777 16.2103L57.6922 17.4398L58.5967 21.1814L63.6822 19.952L68.7678 18.7225L67.8632 14.9808L62.7777 16.2103ZM63.6822 19.952V14.7199H60.7012V19.952V25.184H63.6822V19.952ZM60.8657 8.43913L55.7852 9.6891L57.0598 14.8699L62.1403 13.6199L67.2209 12.3699L65.9462 7.18917L60.8657 8.43913ZM62.1403 13.6199V18.8519H65.697V13.6199V8.38789H62.1403V13.6199ZM65.697 13.6199L69.5234 10.0516L64.6921 4.87086L60.8657 8.43913L57.0393 12.0074L61.8706 17.1882L65.697 13.6199ZM84.5574 10.2689V15.5009C86.2602 15.5009 87.8564 14.6723 88.8363 13.2798C89.8161 11.8873 90.0571 10.1051 89.4822 8.50235L84.5574 10.2689ZM81.4736 10.2689L76.5665 12.0838C77.3261 14.1374 79.2841 15.5009 81.4736 15.5009V10.2689ZM82.7277 14.7917V9.55973C81.2458 9.55973 79.8333 10.1882 78.8412 11.289C77.8491 12.3899 77.3703 13.8598 77.5239 15.3338L82.7277 14.7917ZM85.8115 14.7917L91.0153 14.2485C90.7371 11.5837 88.4908 9.55973 85.8115 9.55973V14.7917ZM80.4252 20.2809V15.0489C79.7981 15.0489 79.2565 14.8041 78.7276 14.126C78.1287 13.3581 77.7421 12.2244 77.7421 11.1529L72.5101 11.1529H67.2781C67.2781 14.4192 68.3614 17.8495 70.4763 20.5612C72.6611 23.3626 76.0771 25.5129 80.4252 25.5129V20.2809ZM72.5101 11.1529L77.7421 11.1529C77.7421 10.6384 77.8223 10.3952 77.8457 10.335C77.8637 10.2885 77.8479 10.345 77.765 10.4227C77.5945 10.5824 77.57 10.464 77.9787 10.464V5.23199V-3.02792e-05C75.5709 -3.02792e-05 72.8121 0.724442 70.6114 2.78582C68.3355 4.91766 67.2781 7.89516 67.2781 11.1529H72.5101ZM77.9787 5.23199V10.464C78.3469 10.464 78.566 10.5038 78.6809 10.5351C78.7821 10.5627 78.8171 10.5869 78.8328 10.598C78.8502 10.6103 78.9362 10.6731 79.0719 10.8686C79.215 11.0748 79.4178 11.4363 79.6327 12.0353L84.5574 10.2689L89.4822 8.50235C88.5538 5.91412 87.1061 3.63874 84.8906 2.06573C82.66 0.482071 80.2002 -3.02792e-05 77.9787 -3.02792e-05V5.23199ZM84.5574 10.2689V5.03683H81.4736V10.2689V15.5009H84.5574V10.2689ZM81.4736 10.2689L86.3808 8.45389C85.0734 4.91912 81.9366 2.77538 78.3487 2.77538V8.0074V13.2394C78.0565 13.2394 77.6318 13.1504 77.2192 12.8616C76.8014 12.5691 76.6205 12.2298 76.5665 12.0838L81.4736 10.2689ZM78.3487 8.0074V2.77538C76.7331 2.77538 74.4856 3.21282 72.6904 5.06475C70.9209 6.89019 70.4235 9.23528 70.4235 11.2557H75.6556L80.8876 11.2557C80.8876 10.809 80.9967 11.53 80.2037 12.348C79.385 13.1926 78.4841 13.2394 78.3487 13.2394V8.0074ZM75.6556 11.2557H70.4235C70.4235 13.6627 71.1313 16.2611 72.5695 18.3933C74.0384 20.571 76.6602 22.7375 80.3635 22.7375V17.5055V12.2735C80.6693 12.2735 80.9551 12.3723 81.1466 12.4911C81.3067 12.5905 81.3168 12.649 81.2446 12.5419C81.1739 12.4371 81.076 12.2476 80.9983 11.9827C80.9211 11.7194 80.8876 11.4619 80.8876 11.2557L75.6556 11.2557ZM80.3635 17.5055V22.7375C81.9046 22.7375 84.0013 22.3056 85.7103 20.6835C87.5838 18.9052 88.1651 16.4916 87.9316 14.2497L82.7277 14.7917L77.5239 15.3338C77.5144 15.2431 77.4963 14.9163 77.6433 14.4563C77.7975 13.9735 78.0883 13.4908 78.5065 13.0939C79.3057 12.3353 80.1176 12.2735 80.3635 12.2735V17.5055ZM82.7277 14.7917V20.0238H85.8115V14.7917V9.55973H82.7277V14.7917ZM85.8115 14.7917L80.6078 15.335C80.6197 15.4487 80.6132 15.498 80.6137 15.4937C80.6144 15.4879 80.6208 15.4428 80.6477 15.3719C80.6747 15.3007 80.7141 15.2255 80.7643 15.1543C80.8138 15.0842 80.8634 15.0329 80.9023 14.9989C80.9767 14.9339 80.9905 14.9497 80.8893 14.9833C80.7875 15.017 80.626 15.0489 80.4252 15.0489V20.2809V25.5129C82.826 25.5129 85.5906 24.7975 87.786 22.88C90.1719 20.796 91.3775 17.7185 91.0153 14.2485L85.8115 14.7917ZM93.0637 19.952L88.0291 21.3755C88.6662 23.6285 90.7224 25.184 93.0637 25.184V19.952ZM91.3779 13.99L96.4126 12.5664C96.1882 11.773 95.7796 11.0439 95.2199 10.4385L91.3779 13.99ZM83.5862 5.56092V0.328907C81.5074 0.328907 79.6258 1.55961 78.7927 3.4642C77.9596 5.36878 78.3331 7.5859 79.7442 9.11242L83.5862 5.56092ZM87.369 5.56092L91.247 2.04878C90.2552 0.953633 88.8465 0.328907 87.369 0.328907V5.56092ZM92.3031 11.009L88.4251 14.5211C89.6529 15.8769 91.4997 16.493 93.2956 16.146C95.0915 15.799 96.5758 14.5393 97.2103 12.8237L92.3031 11.009ZM94.3178 5.56092V0.328907C92.1282 0.328907 90.1701 1.69245 89.4106 3.74618L94.3178 5.56092ZM97.4633 5.56092L102.369 7.37964C102.964 5.7739 102.736 3.97848 101.758 2.57274C100.78 1.167 99.1758 0.328907 97.4633 0.328907V5.56092ZM94.3384 13.99L89.4326 12.1712C89.0471 13.211 89.002 14.3464 89.3038 15.4135L94.3384 13.99ZM96.0242 19.952V25.184C97.6634 25.184 99.2079 24.4157 100.197 23.1084C101.186 21.801 101.505 20.1058 101.059 18.5284L96.0242 19.952ZM93.0637 19.952L98.0984 18.5284L96.4126 12.5664L91.3779 13.99L86.3433 15.4135L88.0291 21.3755L93.0637 19.952ZM91.3779 13.99L95.2199 10.4385L87.4282 2.00943L83.5862 5.56092L79.7442 9.11242L87.5359 17.5415L91.3779 13.99ZM83.5862 5.56092V10.7929H87.369V5.56092V0.328907L83.5862 0.328907V5.56092ZM87.369 5.56092L83.491 9.07307L88.4251 14.5211L92.3031 11.009L96.1811 7.49682L91.247 2.04878L87.369 5.56092ZM92.3031 11.009L97.2103 12.8237L99.225 7.37567L94.3178 5.56092L89.4106 3.74618L87.3959 9.19422L92.3031 11.009ZM94.3178 5.56092V10.7929H97.4633V5.56092V0.328907H94.3178V5.56092ZM97.4633 5.56092L92.5575 3.74221L89.4326 12.1712L94.3384 13.99L99.2441 15.8087L102.369 7.37964L97.4633 5.56092ZM94.3384 13.99L89.3038 15.4135L90.9896 21.3755L96.0242 19.952L101.059 18.5284L99.373 12.5664L94.3384 13.99ZM96.0242 19.952V14.7199H93.0637V19.952V25.184H96.0242V19.952Z" fill="#C4C5C9" mask="url(#path-3-outside-2_358_5986)"/>
<path d="M19.623 19.952L5.23197 5.56092H11.1117C16.4159 5.56092 21.0004 8.50081 21.0004 12.0575C21.0004 13.5788 20.0342 14.5862 18.0606 14.5862H17.7727L23.1385 19.952H19.623ZM11.1323 7.96628L15.3263 12.1602H17.156C17.7727 12.1602 18.0194 11.9341 18.0194 11.4818C18.0194 9.59042 15.1412 7.96628 12.0163 7.96628H11.1323ZM32.367 19.952L17.9759 5.56092H24.0613C29.3654 5.56092 33.95 8.39801 33.95 11.8519C33.95 12.3247 33.8472 12.7564 33.6827 13.1059L44.2498 19.952H39.9736L30.9895 14.2983H30.2289L35.8825 19.952H32.367ZM23.8762 7.96628L27.8646 11.9547H30.1055C30.7223 11.9547 30.969 11.7285 30.969 11.2762C30.969 9.48762 28.0908 7.96628 24.9658 7.96628H23.8762ZM44.0804 19.952L35.3841 5.56092H38.509L47.1847 19.952H44.0804ZM53.7934 19.952L40.2041 5.56092H43.9869L53.6906 16.2925L50.9152 5.56092H53.9167L57.7201 19.952H53.7934ZM60.7012 19.952L57.3091 5.56092L61.2974 5.56092L75.2979 19.952H71.5973L68.1229 16.2103H62.7777L63.6822 19.952H60.7012ZM60.8657 8.43913L62.1403 13.6199H65.697L60.8657 8.43913ZM80.4252 20.2809C75.45 20.2809 72.5101 15.4907 72.5101 11.1529C72.5101 6.91779 75.1622 5.23199 77.9787 5.23199C80.9186 5.23199 83.2006 6.48606 84.5574 10.2689H81.4737C80.9186 8.76807 79.7262 8.0074 78.3487 8.0074C76.8685 8.0074 75.6556 8.78863 75.6556 11.2557C75.6556 14.1544 77.4236 17.5055 80.3635 17.5055C81.6587 17.5055 82.9333 16.7654 82.7277 14.7917H85.8115C86.2021 18.5334 83.3034 20.2809 80.4252 20.2809ZM93.0637 19.952L91.3779 13.99L83.5862 5.56092H87.369L92.3031 11.009L94.3178 5.56092H97.4633L94.3384 13.99L96.0242 19.952H93.0637Z" fill="black"/>
<path d="M104.331 20.2603C101.288 20.2603 98.6978 18.5334 98.6978 14.3806C98.6978 10.1249 101.597 5.25254 106.448 5.25254C109.327 5.25254 112.164 6.85612 111.876 10.4128H109.265C109.347 8.3569 107.846 7.61679 106.428 7.61679C103.324 7.61679 101.37 11.1734 101.37 14.2778C101.37 16.9093 102.748 17.8961 104.372 17.8961C105.976 17.8961 107.291 16.8887 107.888 15.1412H110.54C109.368 18.4923 107.271 20.2603 104.331 20.2603ZM120.542 19.952L122.31 13.5788H115.773L114.005 19.952H111.476L115.485 5.56092H118.014L116.431 11.2145H122.968L124.551 5.56092H127.08L123.071 19.952H120.542ZM131.386 20.2809C127.83 20.2809 125.815 17.4027 127.953 13.8255L133.011 5.56092H136.135L130.317 14.874C129.454 16.4981 130.173 17.6083 131.777 17.6083C133.524 17.6083 134.594 16.4776 135.745 14.5862L141.234 5.56092H144.359L138.602 14.874C136.3 18.8007 134.635 20.2809 131.386 20.2809ZM138.549 19.952L147.224 5.56092H151.994C153.988 5.56092 155.921 6.50662 155.921 8.97366C155.921 11.5846 153.7 13.9488 149.733 14.3806L150.37 19.952H147.368L146.813 14.3395H145.045L141.653 19.952H138.549ZM146.608 11.7696H148.931C151.418 11.7696 152.878 10.6595 152.878 9.4465C152.878 8.68584 152.426 8.23355 151.357 8.23355H148.746L146.608 11.7696ZM157.337 20.2809C155.26 20.2809 154.541 19.3146 154.541 17.9578C154.541 13.0648 162.888 5.23199 169.446 5.23199C171.933 5.23199 173.804 7.14394 171.399 10.4539H168.479C170.001 8.19243 169.343 7.63735 168.459 7.63735C164.614 7.63735 157.522 14.1544 157.522 17.1766C157.522 17.6083 157.727 17.8755 158.282 17.8755C159.578 17.8755 161.284 16.971 162.785 15.4907H166.341C163.401 18.4101 160.667 20.2809 157.337 20.2809ZM172.441 19.952L178.752 13.6405H173.839L167.527 19.952H164.012L178.403 5.56092H181.918L176.265 11.2145H181.178L186.832 5.56092H190.347L175.956 19.952H172.441Z" fill="black"/>
</svg>
