<svg width="270" height="107" viewBox="0 0 270 107" fill="none" xmlns="http://www.w3.org/2000/svg">
<mask id="path-1-outside-1_410_4231" maskUnits="userSpaceOnUse" x="-1" y="0" width="271" height="107" fill="black">
<rect fill="white" x="-1" width="271" height="107"/>
<path fill-rule="evenodd" clip-rule="evenodd" d="M136.72 4C139.349 4 141.48 6.13089 141.48 8.75977V12.9404C141.48 14.0031 141.131 14.9833 140.542 15.7754C142.31 15.0786 144.275 14.6729 146.42 14.6729C148.862 14.6729 151.637 15.2002 154.147 16.6123C155.356 15.649 156.881 15.086 158.51 15.0859H161.893C163.5 15.086 165.037 15.64 166.266 16.623C167.476 15.6536 169.005 15.086 170.64 15.0859H174.023C175.457 15.086 176.835 15.5275 177.988 16.3203C179.138 15.5288 180.517 15.0859 181.958 15.0859H186.139C187.354 15.086 188.524 15.4026 189.549 15.9746C190.575 15.4017 191.745 15.0859 192.96 15.0859H197.141C197.8 15.0859 198.445 15.1786 199.061 15.3545C199.676 15.1798 200.319 15.0859 200.975 15.0859H207.356C209.657 15.086 212.603 15.612 215.161 17.5146C215.852 18.0289 216.469 18.6113 217.008 19.251C220.985 16.646 225.783 14.6455 230.705 14.6455L231.303 14.6602C233.339 14.7587 235.835 15.373 237.917 16.9648L237.99 16.8965C239.274 15.7338 240.948 15.086 242.688 15.0859H247.393C248.564 15.086 249.686 15.3789 250.678 15.9062C251.681 15.3724 252.809 15.086 253.966 15.0859H258.67C261.501 15.086 264.053 16.7916 265.137 19.4072C266.22 22.0229 265.621 25.0332 263.619 27.0352L244.365 46.29C243.053 47.6025 241.272 48.3398 239.416 48.3398H234.712C233.541 48.3398 232.417 48.0471 231.426 47.5195C230.423 48.0531 229.295 48.3398 228.139 48.3398H223.435C222.444 48.3398 221.489 48.1302 220.618 47.7471C218.743 48.395 216.713 48.7803 214.504 48.7803C212.747 48.7803 210.642 48.4788 208.696 47.3936C207.64 48.0067 206.43 48.3398 205.183 48.3398H201.167C199.762 48.3398 198.448 47.9223 197.345 47.2021C196.225 47.9324 194.901 48.3398 193.52 48.3398H189.367C188.231 48.3398 187.136 48.0625 186.161 47.5596C184.13 48.4261 181.994 48.7802 179.785 48.7803C177.425 48.7803 174.955 48.2226 172.805 46.9775C171.632 47.8396 170.192 48.3398 168.659 48.3398H165.276C163.669 48.3398 162.132 47.7861 160.903 46.8027C159.692 47.772 158.163 48.3398 156.529 48.3398H153.146C151.95 48.3398 150.792 48.0314 149.77 47.4688C147.84 48.3314 145.748 48.7519 143.587 48.752C142.862 48.752 142.116 48.7029 141.359 48.6025L144.88 58.46C145.427 59.9911 145.194 61.6924 144.258 63.0215C143.379 64.2679 141.984 65.0415 140.473 65.1328C140.857 65.3753 141.229 65.6533 141.583 65.9717C143.459 67.6593 144.295 69.9724 144.295 72.2852C144.295 74.5957 143.461 76.906 141.595 78.5957C140.459 79.6238 139.139 80.2439 137.792 80.5635C137.756 80.8556 137.694 81.1397 137.61 81.4141C139.012 81.7168 140.396 82.3372 141.583 83.4043C143.459 85.0919 144.295 87.405 144.295 89.7178C144.295 92.0283 143.461 94.3386 141.595 96.0283C140.459 97.0564 139.139 97.6765 137.792 97.9961C137.489 100.468 135.384 102.382 132.831 102.382H130.527C127.766 102.382 125.527 100.143 125.527 97.3818V86.1816C125.527 85.003 125.936 83.9202 126.618 83.0654C125.936 82.2107 125.527 81.1279 125.527 79.9492V68.749C125.527 67.1888 126.241 65.7949 127.361 64.8779C126.366 64.543 125.486 63.9008 124.866 63.0195C123.93 61.6889 123.7 59.9857 124.249 58.4541L127.885 48.3105C125.46 48.0937 123.338 46.6314 122.259 44.4854C122.001 44.7522 121.732 45.0102 121.45 45.2568C118.513 47.8223 114.814 48.7802 111.602 48.7803C109.857 48.7803 108.223 48.5197 106.713 48.0557C106.083 48.2407 105.421 48.3398 104.742 48.3398H99.791C97.8446 48.3398 95.9865 47.5288 94.662 46.1025L94.4921 45.9199C93.1662 47.4517 91.2377 48.3398 89.2011 48.3398H85.2128C84.5232 48.3398 83.8531 48.2378 83.2177 48.0488C82.5778 48.239 81.9075 48.3398 81.2245 48.3398H75.9706C74.3509 48.3398 72.7932 47.7762 71.5517 46.7646C70.3218 47.7668 68.7667 48.3398 67.1288 48.3398H57.4814C56.6551 48.3398 55.8397 48.1924 55.0712 47.9102L54.7451 47.7812C53.8955 48.1425 52.9679 48.3398 52.0078 48.3398H47.3046C45.4482 48.3398 43.6672 47.6027 42.3544 46.29L40.9765 44.9121C39.7287 47.0156 37.4512 48.3398 34.957 48.3398H30.2538C28.3976 48.3398 26.6173 47.6025 25.3046 46.29L6.04975 27.0352C4.0481 25.0332 3.44976 22.0228 4.53314 19.4072C5.61662 16.7915 8.16871 15.0859 10.9999 15.0859H18.8662C20.9386 15.0859 22.9925 15.3326 24.954 15.8086C25.8983 15.3426 26.9535 15.0859 28.0507 15.0859H36.1923C39.7622 15.086 43.2858 15.7995 46.3769 17.1494C47.6731 15.8462 49.4524 15.086 51.3408 15.0859H55.5214C55.902 15.0859 56.2776 15.1206 56.6464 15.1807C57.0205 15.1188 57.4026 15.0859 57.79 15.0859H62.8505C64.5672 15.086 66.2135 15.7174 67.4863 16.8428C68.7545 15.7219 70.3978 15.086 72.1201 15.0859H76.1357C76.9261 15.0859 77.6922 15.2176 78.4091 15.4639C79.1301 15.2171 79.8945 15.0859 80.6747 15.0859H86.0107C87.9006 15.086 89.7104 15.8505 91.0283 17.2051L95.7187 22.0273C96.414 20.6762 97.3284 19.4448 98.4726 18.373C101.417 15.6153 105.108 14.6455 108.329 14.6455C110.033 14.6455 111.84 14.8586 113.636 15.4385C114.332 15.2083 115.072 15.086 115.831 15.0859H120.893L121.262 15.0957C122.849 15.1795 124.357 15.8026 125.54 16.8535C126.426 16.0668 127.505 15.5104 128.681 15.251C128.3 14.5667 128.082 13.7792 128.082 12.9404V8.75977C128.082 6.13089 130.213 4 132.842 4H136.72ZM25.4267 26.5771C25.4098 26.5681 25.3929 26.5588 25.3759 26.5498L25.3681 26.5459C25.3877 26.5562 25.4072 26.5667 25.4267 26.5771Z"/>
</mask>
<path fill-rule="evenodd" clip-rule="evenodd" d="M136.72 4C139.349 4 141.48 6.13089 141.48 8.75977V12.9404C141.48 14.0031 141.131 14.9833 140.542 15.7754C142.31 15.0786 144.275 14.6729 146.42 14.6729C148.862 14.6729 151.637 15.2002 154.147 16.6123C155.356 15.649 156.881 15.086 158.51 15.0859H161.893C163.5 15.086 165.037 15.64 166.266 16.623C167.476 15.6536 169.005 15.086 170.64 15.0859H174.023C175.457 15.086 176.835 15.5275 177.988 16.3203C179.138 15.5288 180.517 15.0859 181.958 15.0859H186.139C187.354 15.086 188.524 15.4026 189.549 15.9746C190.575 15.4017 191.745 15.0859 192.96 15.0859H197.141C197.8 15.0859 198.445 15.1786 199.061 15.3545C199.676 15.1798 200.319 15.0859 200.975 15.0859H207.356C209.657 15.086 212.603 15.612 215.161 17.5146C215.852 18.0289 216.469 18.6113 217.008 19.251C220.985 16.646 225.783 14.6455 230.705 14.6455L231.303 14.6602C233.339 14.7587 235.835 15.373 237.917 16.9648L237.99 16.8965C239.274 15.7338 240.948 15.086 242.688 15.0859H247.393C248.564 15.086 249.686 15.3789 250.678 15.9062C251.681 15.3724 252.809 15.086 253.966 15.0859H258.67C261.501 15.086 264.053 16.7916 265.137 19.4072C266.22 22.0229 265.621 25.0332 263.619 27.0352L244.365 46.29C243.053 47.6025 241.272 48.3398 239.416 48.3398H234.712C233.541 48.3398 232.417 48.0471 231.426 47.5195C230.423 48.0531 229.295 48.3398 228.139 48.3398H223.435C222.444 48.3398 221.489 48.1302 220.618 47.7471C218.743 48.395 216.713 48.7803 214.504 48.7803C212.747 48.7803 210.642 48.4788 208.696 47.3936C207.64 48.0067 206.43 48.3398 205.183 48.3398H201.167C199.762 48.3398 198.448 47.9223 197.345 47.2021C196.225 47.9324 194.901 48.3398 193.52 48.3398H189.367C188.231 48.3398 187.136 48.0625 186.161 47.5596C184.13 48.4261 181.994 48.7802 179.785 48.7803C177.425 48.7803 174.955 48.2226 172.805 46.9775C171.632 47.8396 170.192 48.3398 168.659 48.3398H165.276C163.669 48.3398 162.132 47.7861 160.903 46.8027C159.692 47.772 158.163 48.3398 156.529 48.3398H153.146C151.95 48.3398 150.792 48.0314 149.77 47.4688C147.84 48.3314 145.748 48.7519 143.587 48.752C142.862 48.752 142.116 48.7029 141.359 48.6025L144.88 58.46C145.427 59.9911 145.194 61.6924 144.258 63.0215C143.379 64.2679 141.984 65.0415 140.473 65.1328C140.857 65.3753 141.229 65.6533 141.583 65.9717C143.459 67.6593 144.295 69.9724 144.295 72.2852C144.295 74.5957 143.461 76.906 141.595 78.5957C140.459 79.6238 139.139 80.2439 137.792 80.5635C137.756 80.8556 137.694 81.1397 137.61 81.4141C139.012 81.7168 140.396 82.3372 141.583 83.4043C143.459 85.0919 144.295 87.405 144.295 89.7178C144.295 92.0283 143.461 94.3386 141.595 96.0283C140.459 97.0564 139.139 97.6765 137.792 97.9961C137.489 100.468 135.384 102.382 132.831 102.382H130.527C127.766 102.382 125.527 100.143 125.527 97.3818V86.1816C125.527 85.003 125.936 83.9202 126.618 83.0654C125.936 82.2107 125.527 81.1279 125.527 79.9492V68.749C125.527 67.1888 126.241 65.7949 127.361 64.8779C126.366 64.543 125.486 63.9008 124.866 63.0195C123.93 61.6889 123.7 59.9857 124.249 58.4541L127.885 48.3105C125.46 48.0937 123.338 46.6314 122.259 44.4854C122.001 44.7522 121.732 45.0102 121.45 45.2568C118.513 47.8223 114.814 48.7802 111.602 48.7803C109.857 48.7803 108.223 48.5197 106.713 48.0557C106.083 48.2407 105.421 48.3398 104.742 48.3398H99.791C97.8446 48.3398 95.9865 47.5288 94.662 46.1025L94.4921 45.9199C93.1662 47.4517 91.2377 48.3398 89.2011 48.3398H85.2128C84.5232 48.3398 83.8531 48.2378 83.2177 48.0488C82.5778 48.239 81.9075 48.3398 81.2245 48.3398H75.9706C74.3509 48.3398 72.7932 47.7762 71.5517 46.7646C70.3218 47.7668 68.7667 48.3398 67.1288 48.3398H57.4814C56.6551 48.3398 55.8397 48.1924 55.0712 47.9102L54.7451 47.7812C53.8955 48.1425 52.9679 48.3398 52.0078 48.3398H47.3046C45.4482 48.3398 43.6672 47.6027 42.3544 46.29L40.9765 44.9121C39.7287 47.0156 37.4512 48.3398 34.957 48.3398H30.2538C28.3976 48.3398 26.6173 47.6025 25.3046 46.29L6.04975 27.0352C4.0481 25.0332 3.44976 22.0228 4.53314 19.4072C5.61662 16.7915 8.16871 15.0859 10.9999 15.0859H18.8662C20.9386 15.0859 22.9925 15.3326 24.954 15.8086C25.8983 15.3426 26.9535 15.0859 28.0507 15.0859H36.1923C39.7622 15.086 43.2858 15.7995 46.3769 17.1494C47.6731 15.8462 49.4524 15.086 51.3408 15.0859H55.5214C55.902 15.0859 56.2776 15.1206 56.6464 15.1807C57.0205 15.1188 57.4026 15.0859 57.79 15.0859H62.8505C64.5672 15.086 66.2135 15.7174 67.4863 16.8428C68.7545 15.7219 70.3978 15.086 72.1201 15.0859H76.1357C76.9261 15.0859 77.6922 15.2176 78.4091 15.4639C79.1301 15.2171 79.8945 15.0859 80.6747 15.0859H86.0107C87.9006 15.086 89.7104 15.8505 91.0283 17.2051L95.7187 22.0273C96.414 20.6762 97.3284 19.4448 98.4726 18.373C101.417 15.6153 105.108 14.6455 108.329 14.6455C110.033 14.6455 111.84 14.8586 113.636 15.4385C114.332 15.2083 115.072 15.086 115.831 15.0859H120.893L121.262 15.0957C122.849 15.1795 124.357 15.8026 125.54 16.8535C126.426 16.0668 127.505 15.5104 128.681 15.251C128.3 14.5667 128.082 13.7792 128.082 12.9404V8.75977C128.082 6.13089 130.213 4 132.842 4H136.72ZM25.4267 26.5771C25.4098 26.5681 25.3929 26.5588 25.3759 26.5498L25.3681 26.5459C25.3877 26.5562 25.4072 26.5667 25.4267 26.5771Z" fill="#3F3F3F"/>
<path d="M183.612 41.0352V43.0352H183.614V41.0352V39.0352H183.612V41.0352ZM218.709 40.9932L219.42 42.8626C219.4 42.8702 219.384 42.8758 219.376 42.8787C219.371 42.8802 219.368 42.8813 219.367 42.8817C219.366 42.882 219.365 42.8823 219.367 42.8816C219.369 42.881 219.381 42.8769 219.395 42.8721C219.409 42.867 219.432 42.8591 219.458 42.849L218.742 40.9814L218.026 39.1139C218.047 39.1059 218.064 39.1 218.073 39.0968C218.078 39.0952 218.081 39.094 218.083 39.0934C218.084 39.0929 218.085 39.0925 218.084 39.093C218.083 39.0933 218.08 39.0945 218.076 39.0958C218.072 39.0971 218.066 39.0992 218.059 39.1016C218.045 39.1064 218.024 39.114 217.998 39.1237L218.709 40.9932ZM183.737 40.9746L184.612 42.7731C184.624 42.7673 184.646 42.7566 184.668 42.7456L183.781 40.9531L182.894 39.1606C182.887 39.1641 182.88 39.1677 182.862 39.1761L183.737 40.9746ZM184.525 40.5303L185.613 42.2088C185.59 42.2238 185.569 42.2366 185.551 42.2471C185.534 42.2576 185.518 42.2663 185.507 42.2729C185.495 42.2794 185.486 42.2846 185.48 42.2876C185.477 42.2891 185.475 42.2903 185.474 42.291C185.473 42.2916 185.472 42.2921 185.472 42.2919C185.472 42.2919 185.472 42.2917 185.473 42.2915C185.473 42.2912 185.474 42.2909 185.475 42.2904C185.476 42.2895 185.479 42.2881 185.482 42.2864C185.489 42.283 185.499 42.2775 185.511 42.2705C185.523 42.2635 185.539 42.2544 185.558 42.2435C185.576 42.2325 185.598 42.2192 185.621 42.2037L184.532 40.5264L183.443 38.849C183.466 38.8339 183.487 38.8209 183.505 38.8103C183.523 38.7997 183.538 38.7909 183.55 38.7842C183.562 38.7776 183.571 38.7724 183.577 38.7693C183.58 38.7678 183.582 38.7665 183.584 38.7658C183.585 38.7651 183.586 38.7645 183.586 38.7647C183.586 38.7647 183.585 38.7649 183.585 38.7651C183.584 38.7653 183.584 38.7657 183.583 38.7661C183.581 38.767 183.579 38.7683 183.576 38.77C183.57 38.7733 183.56 38.7788 183.547 38.7856C183.535 38.7925 183.519 38.8015 183.501 38.8124C183.483 38.8232 183.462 38.8364 183.438 38.8518L184.525 40.5303ZM185.303 39.958L184.028 38.4169C183.988 38.4495 183.954 38.4775 183.923 38.5026L185.167 40.0684L186.411 41.6342C186.471 41.587 186.527 41.5412 186.577 41.4991L185.303 39.958ZM149.704 38.9316L151.235 40.2187C151.221 40.2358 151.209 40.249 151.202 40.2563C151.199 40.26 151.196 40.2629 151.195 40.2643C151.194 40.2655 151.193 40.2665 151.194 40.2653C151.195 40.2647 151.197 40.2622 151.2 40.2593C151.202 40.2562 151.207 40.2517 151.211 40.2463C151.221 40.2356 151.235 40.219 151.253 40.1984L149.719 38.915L148.185 37.6317C148.2 37.6139 148.212 37.6001 148.219 37.5922C148.222 37.5881 148.225 37.585 148.227 37.5833C148.228 37.5817 148.229 37.5806 148.228 37.5814C148.228 37.5816 148.226 37.584 148.224 37.5865C148.221 37.5893 148.217 37.5935 148.213 37.5986C148.204 37.6087 148.19 37.6247 148.173 37.6446L149.704 38.9316ZM224.93 36.9082L223.59 35.4228C223.477 35.5255 223.361 35.6278 223.243 35.7312L224.562 37.2344L225.882 38.7376C226.008 38.6265 226.138 38.5117 226.269 38.3936L224.93 36.9082ZM188.185 36.5645L186.519 35.4571C186.427 35.5958 186.519 35.4589 186.462 35.5446L188.123 36.6582L189.784 37.7718C189.803 37.7436 189.82 37.7174 189.83 37.7022C189.842 37.6835 189.846 37.6773 189.85 37.6718L188.185 36.5645ZM118.847 34.9717L116.848 35.0582C116.85 35.0857 116.849 35.0795 116.851 35.171L118.851 35.1201L120.85 35.0692C120.85 35.0623 120.848 34.9572 120.845 34.8852L118.847 34.9717ZM118.809 34.4355L116.819 34.6432C116.828 34.7249 116.834 34.8142 116.842 34.9362L118.838 34.8125L120.834 34.6888C120.826 34.5632 120.816 34.4006 120.798 34.2279L118.809 34.4355ZM209.069 32.3916L210.094 34.1093C210.062 34.1281 210.034 34.1439 210.01 34.1568C209.985 34.1696 209.965 34.18 209.949 34.1879C209.933 34.1956 209.92 34.2017 209.912 34.2052C209.908 34.207 209.905 34.2084 209.903 34.2093C209.902 34.21 209.9 34.2106 209.901 34.2104C209.901 34.2104 209.901 34.2102 209.902 34.2099C209.902 34.2097 209.903 34.2092 209.904 34.2087C209.907 34.2077 209.91 34.2061 209.914 34.2041C209.923 34.2002 209.937 34.1938 209.953 34.1856C209.97 34.1774 209.992 34.1665 210.017 34.1533C210.042 34.14 210.071 34.1237 210.103 34.1044L209.077 32.3877L208.051 30.671C208.083 30.652 208.111 30.6361 208.136 30.6232C208.16 30.6103 208.181 30.5998 208.197 30.5918C208.213 30.584 208.226 30.5779 208.234 30.5743C208.238 30.5725 208.241 30.571 208.243 30.5701C208.245 30.5693 208.246 30.5687 208.246 30.5689C208.246 30.5689 208.246 30.5689 208.245 30.569C208.245 30.5691 208.245 30.5692 208.245 30.5693C208.244 30.5696 208.243 30.57 208.242 30.5705C208.24 30.5715 208.237 30.5731 208.232 30.575C208.224 30.5789 208.21 30.5852 208.194 30.5933C208.177 30.6014 208.156 30.6122 208.131 30.6254C208.106 30.6386 208.077 30.6547 208.045 30.6739L209.069 32.3916ZM209.691 31.9854L210.858 33.61C210.831 33.6295 210.808 33.6445 210.795 33.6532C210.788 33.6576 210.783 33.6611 210.78 33.6631C210.777 33.6649 210.775 33.6664 210.776 33.6658C210.776 33.6658 210.779 33.6638 210.783 33.6614C210.787 33.6588 210.793 33.6547 210.801 33.6496C210.816 33.6397 210.84 33.6235 210.869 33.6027L209.7 31.9795L208.532 30.3563C208.559 30.3365 208.582 30.3213 208.595 30.3124C208.602 30.3078 208.608 30.3042 208.611 30.3021C208.614 30.3001 208.617 30.2986 208.616 30.299C208.616 30.299 208.615 30.2996 208.614 30.3002C208.613 30.3009 208.611 30.3019 208.609 30.3032C208.606 30.3056 208.599 30.3096 208.592 30.3145C208.577 30.3242 208.554 30.3401 208.525 30.3607L209.691 31.9854ZM49.3857 31.0459L47.4019 30.7917C47.3993 30.8122 47.3974 30.8291 47.3963 30.8397C47.3957 30.8451 47.3952 30.8497 47.3949 30.8526C47.3947 30.8551 47.3944 30.858 47.3944 30.8581C47.3943 30.8589 47.3944 30.8578 47.3946 30.8561C47.3948 30.8543 47.3951 30.8509 47.3956 30.8466C47.3965 30.8383 47.3982 30.8238 47.4006 30.8055L49.3828 31.0723L51.3649 31.339C51.3679 31.3164 51.3701 31.2975 51.3715 31.2847C51.3729 31.2726 51.3739 31.2623 51.3741 31.2601C51.3743 31.258 51.3743 31.2587 51.3742 31.259C51.3741 31.2597 51.3739 31.2621 51.3736 31.2653C51.3729 31.2715 51.3715 31.284 51.3695 31.3L49.3857 31.0459ZM32.0898 31.0137L30.0924 30.9114C30.0919 30.9217 30.0915 30.9307 30.0912 30.9371C30.091 30.9402 30.0909 30.9434 30.0908 30.9455C30.0907 30.9479 30.0906 30.9496 30.0905 30.951C30.0904 30.9539 30.0904 30.9541 30.0904 30.9531C30.0905 30.9519 30.0907 30.9484 30.091 30.9433L32.0869 31.0723L34.0827 31.2012C34.0845 31.1726 34.0857 31.148 34.0863 31.135C34.0865 31.1316 34.0866 31.1283 34.0867 31.1259C34.0868 31.1231 34.0869 31.1214 34.087 31.1196C34.0872 31.1162 34.0872 31.1155 34.0872 31.1159L32.0898 31.0137ZM211.49 30.1768L209.845 29.04C209.826 29.0665 209.812 29.0885 209.803 29.1023C209.799 29.1093 209.795 29.1151 209.793 29.1188C209.791 29.1221 209.789 29.1253 209.789 29.1253C209.788 29.1261 209.789 29.1242 209.791 29.1217C209.793 29.119 209.796 29.1142 209.8 29.1082C209.807 29.0963 209.82 29.0763 209.837 29.0518L211.479 30.1934L213.122 31.3349C213.141 31.3077 213.155 31.2849 213.165 31.2703C213.17 31.2629 213.173 31.2567 213.176 31.2526C213.179 31.2487 213.181 31.2454 213.181 31.2448C213.182 31.2435 213.181 31.2452 213.179 31.2471C213.178 31.2494 213.175 31.2539 213.172 31.2595C213.165 31.2704 213.152 31.2897 213.136 31.3135L211.49 30.1768ZM32.0351 29.9639L30.0567 30.2572C30.062 30.2931 30.0677 30.3248 30.073 30.3515C30.0782 30.378 30.0832 30.4007 30.0873 30.4183C30.0913 30.4356 30.0949 30.4497 30.097 30.4582C30.0981 30.4626 30.099 30.4661 30.0996 30.4683C30.0999 30.4695 30.1001 30.4704 30.1003 30.471C30.1004 30.4712 30.1004 30.4715 30.1005 30.4717C30.1005 30.4718 30.1005 30.4719 30.1005 30.4719C30.1006 30.4723 30.1003 30.4708 30.0998 30.469C30.0993 30.4671 30.0984 30.4638 30.0974 30.4596C30.0953 30.4516 30.092 30.438 30.0881 30.4211C30.0841 30.404 30.0792 30.3818 30.0741 30.3557C30.069 30.3295 30.0634 30.2982 30.0582 30.2628L32.0371 29.9727L34.0159 29.6825C34.0106 29.6463 34.0049 29.6143 33.9996 29.5874C33.9944 29.5606 33.9893 29.5376 33.9852 29.5198C33.9811 29.5022 33.9776 29.4879 33.9753 29.4791C33.9742 29.4746 33.9732 29.4709 33.9726 29.4686C33.9723 29.4674 33.9721 29.4664 33.9719 29.4658C33.9718 29.4652 33.9716 29.4646 33.9716 29.4646C33.9715 29.464 33.9718 29.4655 33.9723 29.4671C33.9727 29.4689 33.9736 29.4721 33.9746 29.4761C33.9766 29.4839 33.9799 29.4972 33.9837 29.5139C33.9876 29.5307 33.9925 29.5526 33.9976 29.5785C34.0027 29.6044 34.0083 29.6354 34.0135 29.6705L32.0351 29.9639ZM211.837 29.6182L210.086 28.6518C210.078 28.6668 210.07 28.6805 210.065 28.6907C210.062 28.6959 210.059 28.7009 210.057 28.7048C210.055 28.709 210.053 28.7122 210.051 28.7152C210.044 28.7283 210.045 28.7269 210.048 28.7207L211.782 29.7178L213.516 30.7149C213.538 30.6758 213.557 30.6412 213.568 30.6209C213.583 30.5938 213.584 30.5921 213.588 30.5846L211.837 29.6182ZM49.1093 28.7168L50.9952 28.051C50.9977 28.0579 50.9991 28.0621 50.9988 28.0612C50.9979 28.0586 50.9979 28.0585 50.9944 28.048C50.9898 28.0343 50.977 27.9958 50.9606 27.9512L49.0839 28.6426L47.2072 29.3339C47.2031 29.3227 47.2002 29.3145 47.199 29.311C47.1979 29.3078 47.1976 29.3067 47.1991 29.3114C47.1995 29.3124 47.1999 29.3136 47.2004 29.3151C47.2009 29.3166 47.2015 29.3185 47.2021 29.3204C47.2034 29.3242 47.2052 29.3295 47.2071 29.3353C47.211 29.3468 47.2166 29.3634 47.2234 29.3826L49.1093 28.7168ZM233.567 28.2734L231.908 27.1572C231.893 27.1791 231.88 27.1989 231.87 27.2157C231.859 27.2325 231.851 27.2471 231.844 27.2585C231.837 27.2698 231.832 27.2791 231.829 27.2848C231.827 27.2878 231.826 27.2902 231.825 27.2917C231.824 27.2925 231.824 27.2931 231.824 27.2935C231.823 27.2939 231.823 27.2943 231.823 27.2943C231.823 27.2953 231.825 27.2915 231.827 27.2868C231.83 27.2818 231.835 27.2732 231.842 27.2625C231.848 27.2518 231.856 27.2379 231.866 27.2218C231.876 27.2056 231.889 27.1865 231.903 27.1653L233.561 28.2832L235.22 29.4011C235.235 29.3791 235.247 29.3592 235.258 29.3423C235.269 29.3253 235.278 29.3106 235.284 29.2991C235.291 29.2876 235.297 29.2782 235.3 29.2723C235.302 29.2693 235.303 29.2668 235.304 29.2652C235.305 29.2637 235.306 29.2624 235.306 29.2623C235.306 29.2619 235.305 29.2627 235.305 29.2637C235.304 29.2648 235.303 29.2668 235.302 29.2693C235.299 29.2742 235.294 29.2827 235.288 29.2932C235.281 29.3038 235.273 29.3176 235.263 29.3335C235.253 29.3496 235.241 29.3686 235.227 29.3897L233.567 28.2734ZM233.817 27.8838L232.111 26.8405C232.085 26.8823 232.056 26.9283 232.02 26.9845L233.705 28.0625L235.39 29.1405C235.43 29.0767 235.477 29.0038 235.524 28.9271L233.817 27.8838ZM153.638 26.9219L151.658 27.2063C151.667 27.2715 151.676 27.3443 151.684 27.4276L153.675 27.2383L155.666 27.049C155.653 26.9181 155.638 26.78 155.617 26.6375L153.638 26.9219ZM116.412 26.6836L114.62 27.5714C114.629 27.5896 114.637 27.6056 114.644 27.6191C114.651 27.6326 114.658 27.6442 114.663 27.6531C114.668 27.662 114.672 27.6693 114.674 27.6738C114.676 27.6761 114.677 27.678 114.677 27.6792C114.678 27.6803 114.679 27.6813 114.679 27.6814C114.679 27.6823 114.677 27.6795 114.676 27.676C114.673 27.6723 114.67 27.6658 114.665 27.6576C114.661 27.6494 114.655 27.6387 114.648 27.626C114.641 27.6132 114.634 27.5979 114.625 27.5806L116.418 26.6943L118.211 25.8081C118.202 25.7898 118.193 25.7736 118.186 25.76C118.179 25.7464 118.173 25.7347 118.168 25.7256C118.163 25.7166 118.159 25.7092 118.156 25.7046C118.155 25.7022 118.153 25.7002 118.153 25.6989C118.152 25.6977 118.151 25.6967 118.151 25.6965C118.151 25.6955 118.152 25.6982 118.154 25.7015C118.156 25.7051 118.16 25.7115 118.164 25.7195C118.169 25.7275 118.175 25.7382 118.181 25.7508C118.188 25.7634 118.196 25.7785 118.204 25.7958L116.412 26.6836ZM153.49 26.1992L151.559 26.7179C151.577 26.7856 151.593 26.853 151.607 26.9204L153.563 26.5029L155.519 26.0855C155.49 25.9469 155.457 25.8119 155.422 25.6805L153.49 26.1992ZM153.064 25.0947L151.285 26.0084C151.297 26.0321 151.309 26.0529 151.319 26.0705C151.328 26.088 151.337 26.1029 151.344 26.1145C151.351 26.126 151.356 26.1353 151.36 26.1411C151.361 26.1441 151.363 26.1465 151.364 26.1481C151.365 26.1495 151.366 26.1509 151.366 26.1509C151.366 26.152 151.364 26.1485 151.361 26.144C151.358 26.1391 151.353 26.1308 151.347 26.1202C151.341 26.1096 151.333 26.0956 151.324 26.0791C151.315 26.0625 151.304 26.0426 151.292 26.0199L153.075 25.1133L154.858 24.2067C154.833 24.1588 154.812 24.1207 154.798 24.097C154.791 24.0849 154.785 24.075 154.781 24.0686C154.777 24.0626 154.774 24.0575 154.774 24.0571C154.773 24.0553 154.775 24.0585 154.777 24.0623C154.78 24.0666 154.784 24.0744 154.79 24.0843C154.802 24.1037 154.821 24.1376 154.844 24.1811L153.064 25.0947ZM46.0878 24.9824L44.9193 26.6055C44.9565 26.6323 44.9752 26.6457 44.9953 26.6605L46.1796 25.0488L47.3639 23.4372C47.3233 23.4073 47.2806 23.3768 47.2564 23.3593L46.0878 24.9824ZM45.623 24.6641L44.5313 26.3399C44.5794 26.3712 44.6233 26.3969 44.6608 26.4174C44.6982 26.438 44.7308 26.4544 44.7561 26.4666C44.7812 26.4787 44.8017 26.4879 44.8142 26.4935C44.8206 26.4963 44.8258 26.4986 44.829 26.5C44.8307 26.5007 44.832 26.5013 44.8328 26.5016C44.8333 26.5018 44.8336 26.502 44.8338 26.5021C44.834 26.5021 44.8342 26.5022 44.8342 26.5022C44.8348 26.5025 44.8325 26.5015 44.8299 26.5003C44.827 26.4991 44.8221 26.4969 44.816 26.4942C44.804 26.4889 44.7841 26.4799 44.7595 26.4681C44.7348 26.4561 44.7027 26.44 44.6659 26.4198C44.6289 26.3994 44.5855 26.374 44.538 26.343L45.6308 24.668L46.7236 22.9929C46.6755 22.9615 46.6314 22.9357 46.5939 22.9151C46.5564 22.8945 46.5237 22.878 46.4983 22.8658C46.4731 22.8536 46.4524 22.8443 46.4398 22.8387C46.4334 22.8358 46.4282 22.8335 46.4249 22.8321C46.4233 22.8314 46.4219 22.8308 46.421 22.8304C46.4206 22.8302 46.4202 22.8301 46.42 22.83C46.4198 22.8299 46.4196 22.8298 46.4195 22.8298C46.4189 22.8295 46.4212 22.8305 46.4238 22.8316C46.4266 22.8329 46.4315 22.835 46.4375 22.8377C46.4494 22.8429 46.4693 22.8519 46.4937 22.8637C46.5183 22.8756 46.5503 22.8916 46.587 22.9118C46.6239 22.932 46.6672 22.9574 46.7146 22.9883L45.623 24.6641ZM152.64 24.4023L151.018 25.5735C151.043 25.6072 151.053 25.6216 151.061 25.633L152.707 24.4971L154.353 23.3611C154.317 23.3087 154.282 23.2602 154.261 23.2312L152.64 24.4023ZM140.542 15.7754L137.332 13.3893L128.976 24.6316L142.008 19.497L140.542 15.7754ZM146.42 14.6729V10.6729V14.6729ZM154.147 16.6123L152.186 20.0986L154.534 21.4191L156.64 19.7406L154.147 16.6123ZM158.51 15.0859V11.0859H158.51L158.51 15.0859ZM161.893 15.0859L161.894 11.0859H161.893V15.0859ZM166.266 16.623L163.766 19.746L166.266 21.7468L168.766 19.7456L166.266 16.623ZM170.64 15.0859V11.0859H170.639L170.64 15.0859ZM174.023 15.0859L174.024 11.0859H174.023V15.0859ZM177.988 16.3203L175.722 19.6165L177.99 21.1754L180.256 19.6151L177.988 16.3203ZM186.139 15.0859L186.139 11.0859H186.139V15.0859ZM189.549 15.9746L187.6 19.4675L189.549 20.5555L191.498 19.4673L189.549 15.9746ZM192.96 15.0859V11.0859H192.96L192.96 15.0859ZM199.061 15.3545L197.964 19.2009L199.059 19.5136L200.155 19.2021L199.061 15.3545ZM200.975 15.0859V11.0859H200.974L200.975 15.0859ZM207.356 15.0859L207.356 11.0859H207.356V15.0859ZM215.161 17.5146L217.548 14.3052L217.548 14.3052L215.161 17.5146ZM217.008 19.251L213.948 21.8273L216.232 24.5406L219.199 22.5971L217.008 19.251ZM230.705 14.6455L230.803 10.6467L230.754 10.6455H230.705V14.6455ZM231.303 14.6602L231.496 10.6648L231.448 10.6625L231.401 10.6614L231.303 14.6602ZM237.917 16.9648L235.487 20.1425L238.174 22.1965L240.646 19.8891L237.917 16.9648ZM237.99 16.8965L235.305 13.9314L235.283 13.9517L235.261 13.9723L237.99 16.8965ZM242.688 15.0859V11.0859H242.688L242.688 15.0859ZM247.393 15.0859L247.393 11.0859H247.393V15.0859ZM250.678 15.9062L248.799 19.4378L250.678 20.4371L252.557 19.4374L250.678 15.9062ZM253.966 15.0859V11.0859H253.966L253.966 15.0859ZM258.67 15.0859L258.67 11.0859H258.67V15.0859ZM265.137 19.4072L268.832 17.8766L268.832 17.8765L265.137 19.4072ZM263.619 27.0352L260.791 24.2068L260.791 24.2068L263.619 27.0352ZM244.365 46.29L247.193 49.1186L247.194 49.1184L244.365 46.29ZM239.416 48.3398V52.3398H239.416L239.416 48.3398ZM234.712 48.3398L234.712 52.3398H234.712V48.3398ZM231.426 47.5195L233.304 43.9882L231.426 42.9887L229.547 43.9881L231.426 47.5195ZM228.139 48.3398V52.3398H228.139L228.139 48.3398ZM223.435 48.3398L223.434 52.3398H223.435V48.3398ZM220.618 47.7471L222.229 44.0857L220.794 43.4544L219.312 43.9664L220.618 47.7471ZM214.504 48.7803L214.504 52.7803H214.504V48.7803ZM208.696 47.3936L210.645 43.9003L208.657 42.7916L206.689 43.9338L208.696 47.3936ZM201.167 48.3398L201.167 52.3398H201.167V48.3398ZM197.345 47.2021L199.532 43.8529L197.346 42.4258L195.159 43.8518L197.345 47.2021ZM189.367 48.3398L189.367 52.3398H189.367V48.3398ZM186.161 47.5596L187.994 44.0043L186.322 43.1421L184.591 43.8804L186.161 47.5596ZM179.785 48.7803V52.7803H179.785L179.785 48.7803ZM172.805 46.9775L174.809 43.516L172.544 42.2043L170.435 43.7551L172.805 46.9775ZM160.903 46.8027L163.403 43.6799L160.903 41.679L158.403 43.68L160.903 46.8027ZM149.77 47.4688L151.701 43.9653L149.957 43.0044L148.139 43.8167L149.77 47.4688ZM143.587 48.752V52.752H143.587L143.587 48.752ZM141.359 48.6025L141.886 44.6373L135.388 43.7748L137.592 49.9479L141.359 48.6025ZM144.88 58.46L148.647 57.1147L148.647 57.1146L144.88 58.46ZM144.258 63.0215L147.527 65.3257L147.528 65.3255L144.258 63.0215ZM140.473 65.1328L140.231 61.1401L127.837 61.8894L138.338 68.5157L140.473 65.1328ZM141.583 65.9717L144.258 62.9977L144.258 62.9976L141.583 65.9717ZM144.295 72.2852H148.295V72.2851L144.295 72.2852ZM141.595 78.5957L144.279 81.561L144.279 81.561L141.595 78.5957ZM137.792 80.5635L136.868 76.6716L134.16 77.3142L133.822 80.0769L137.792 80.5635ZM137.61 81.4141L133.785 80.244L132.512 84.4051L136.766 85.3239L137.61 81.4141ZM141.583 83.4043L144.258 80.4303L144.258 80.4302L141.583 83.4043ZM144.295 89.7178H148.295V89.7178L144.295 89.7178ZM141.595 96.0283L144.279 98.9936L144.279 98.9936L141.595 96.0283ZM137.792 97.9961L136.868 94.1042L134.16 94.7469L133.822 97.5095L137.792 97.9961ZM125.527 86.1816L121.527 86.1815V86.1816H125.527ZM126.618 83.0654L129.744 85.5608L131.736 83.0654L129.744 80.5701L126.618 83.0654ZM125.527 68.749L121.527 68.7489V68.749H125.527ZM127.361 64.8779L129.895 67.9727L135.489 63.3923L128.637 61.0868L127.361 64.8779ZM124.866 63.0195L121.595 65.3217L121.595 65.3219L124.866 63.0195ZM124.249 58.4541L128.014 59.8042L128.014 59.8037L124.249 58.4541ZM127.885 48.3105L131.65 49.6602L133.397 44.7877L128.241 44.3265L127.885 48.3105ZM122.259 44.4854L125.832 42.6886L123.297 37.6453L119.379 41.7091L122.259 44.4854ZM121.45 45.2568L124.082 48.2695L124.082 48.2694L121.45 45.2568ZM111.602 48.7803V52.7803H111.603L111.602 48.7803ZM106.713 48.0557L107.887 44.232L106.739 43.8792L105.586 44.2176L106.713 48.0557ZM104.742 48.3398V52.3398H104.742L104.742 48.3398ZM99.791 48.3398L99.7908 52.3398H99.791V48.3398ZM94.662 46.1025L97.5932 43.3807L97.5904 43.3777L94.662 46.1025ZM94.4921 45.9199L97.4205 43.1951L94.3845 39.9323L91.4677 43.3021L94.4921 45.9199ZM89.2011 48.3398V52.3398H89.2011L89.2011 48.3398ZM85.2128 48.3398L85.2126 52.3398H85.2128V48.3398ZM83.2177 48.0488L84.3581 44.2148L83.2181 43.8757L82.078 44.2146L83.2177 48.0488ZM81.2245 48.3398V52.3398H81.2246L81.2245 48.3398ZM75.9706 48.3398L75.9704 52.3398H75.9706V48.3398ZM71.5517 46.7646L74.0783 43.6636L71.5515 41.6049L69.0249 43.6638L71.5517 46.7646ZM67.1288 48.3398V52.3398H67.1289L67.1288 48.3398ZM55.0712 47.9102L53.601 51.6302L53.6465 51.6481L53.6924 51.665L55.0712 47.9102ZM54.7451 47.7812L56.2152 44.0612L54.6895 43.4583L53.1798 44.1002L54.7451 47.7812ZM52.0078 48.3398V52.3398H52.0078L52.0078 48.3398ZM42.3544 46.29L39.526 49.1185L39.5261 49.1186L42.3544 46.29ZM40.9765 44.9121L43.8049 42.0837L40.1636 38.4423L37.5363 42.8713L40.9765 44.9121ZM34.957 48.3398V52.3398H34.957L34.957 48.3398ZM30.2538 48.3398L30.2538 52.3398H30.2538V48.3398ZM25.3046 46.29L22.4762 49.1185L22.4765 49.1187L25.3046 46.29ZM6.04975 27.0352L3.22108 29.8633L3.22132 29.8636L6.04975 27.0352ZM4.53314 19.4072L0.83763 17.8765L0.837623 17.8765L4.53314 19.4072ZM18.8662 15.0859L18.8662 11.0859H18.8662V15.0859ZM24.954 15.8086L24.0108 19.6958L25.4219 20.0382L26.7241 19.3956L24.954 15.8086ZM36.1923 15.0859L36.1924 11.0859H36.1923V15.0859ZM46.3769 17.1494L44.776 20.8151L47.2834 21.9101L49.2129 19.9702L46.3769 17.1494ZM51.3408 15.0859V11.0859H51.3407L51.3408 15.0859ZM55.5214 15.0859L55.5215 11.0859H55.5214V15.0859ZM56.6464 15.1807L56.0036 19.1287L56.6514 19.2342L57.299 19.1271L56.6464 15.1807ZM62.8505 15.0859L62.8506 11.0859H62.8505V15.0859ZM67.4863 16.8428L64.8367 19.8394L67.4857 22.1816L70.1352 19.8399L67.4863 16.8428ZM72.1201 15.0859V11.0859H72.12L72.1201 15.0859ZM76.1357 15.0859L76.1357 11.0859H76.1357V15.0859ZM78.4091 15.4639L77.1096 19.2469L78.4067 19.6925L79.7043 19.2484L78.4091 15.4639ZM86.0107 15.0859L86.0107 11.0859H86.0107V15.0859ZM91.0283 17.2051L93.8956 14.4161L93.8953 14.4158L91.0283 17.2051ZM95.7187 22.0273L92.8513 24.8163L96.73 28.804L99.2754 23.8576L95.7187 22.0273ZM98.4726 18.373L95.7381 15.4537L95.7381 15.4537L98.4726 18.373ZM108.329 14.6455L108.329 10.6455H108.329V14.6455ZM113.636 15.4385L112.406 19.2448L113.65 19.6465L114.891 19.2365L113.636 15.4385ZM115.831 15.0859V11.0859H115.831L115.831 15.0859ZM120.893 15.0859L120.998 11.0873L120.945 11.0859H120.893V15.0859ZM121.262 15.0957L121.473 11.1013L121.42 11.0985L121.367 11.0971L121.262 15.0957ZM125.54 16.8535L122.883 19.844L125.54 22.2036L128.196 19.8442L125.54 16.8535ZM128.681 15.251L129.543 19.157L134.787 17.9994L132.176 13.3061L128.681 15.251ZM25.4267 26.5771L23.5335 30.1008L27.32 23.0536L25.4267 26.5771ZM25.3759 26.5498L27.246 23.0139L27.2056 22.9925L27.1648 22.9721L25.3759 26.5498ZM25.3681 26.5459L27.157 22.9682L23.5017 30.0838L25.3681 26.5459ZM136.72 4V8C137.14 8 137.48 8.3411 137.48 8.75977H141.48H145.48C145.48 3.92068 141.557 0 136.72 0V4ZM141.48 8.75977H137.48V12.9404H141.48H145.48V8.75977H141.48ZM141.48 12.9404H137.48C137.48 13.1098 137.428 13.2595 137.332 13.3893L140.542 15.7754L143.752 18.1615C144.833 16.7071 145.48 14.8964 145.48 12.9404H141.48ZM140.542 15.7754L142.008 19.497C143.322 18.9795 144.79 18.6729 146.42 18.6729V14.6729V10.6729C143.761 10.6729 141.299 11.1777 139.076 12.0538L140.542 15.7754ZM146.42 14.6729V18.6729C148.323 18.6729 150.391 19.0888 152.186 20.0986L154.147 16.6123L156.109 13.1261C152.883 11.3115 149.402 10.6729 146.42 10.6729V14.6729ZM154.147 16.6123L156.64 19.7406C157.161 19.3253 157.813 19.086 158.51 19.0859L158.51 15.0859L158.51 11.0859C155.949 11.086 153.551 11.9727 151.655 13.484L154.147 16.6123ZM158.51 15.0859V19.0859H161.893V15.0859V11.0859H158.51V15.0859ZM161.893 15.0859L161.893 19.0859C162.577 19.086 163.236 19.3213 163.766 19.746L166.266 16.623L168.765 13.5001C166.839 11.9586 164.424 11.0861 161.894 11.0859L161.893 15.0859ZM166.266 16.623L168.766 19.7456C169.289 19.3266 169.942 19.086 170.64 19.0859L170.64 15.0859L170.639 11.0859C168.069 11.0861 165.664 11.9805 163.766 13.5005L166.266 16.623ZM170.64 15.0859V19.0859H174.023V15.0859V11.0859H170.64V15.0859ZM174.023 15.0859L174.023 19.0859C174.632 19.086 175.223 19.2732 175.722 19.6165L177.988 16.3203L180.254 13.0242C178.447 11.7817 176.282 11.086 174.024 11.0859L174.023 15.0859ZM177.988 16.3203L180.256 19.6151C180.75 19.2752 181.341 19.0859 181.958 19.0859V15.0859V11.0859C179.694 11.0859 177.526 11.7823 175.72 13.0255L177.988 16.3203ZM181.958 15.0859V19.0859H186.139V15.0859V11.0859H181.958V15.0859ZM186.139 15.0859L186.139 19.0859C186.656 19.0859 187.157 19.2203 187.6 19.4675L189.549 15.9746L191.498 12.4817C189.891 11.5848 188.052 11.086 186.139 11.0859L186.139 15.0859ZM189.549 15.9746L191.498 19.4673C191.941 19.2202 192.442 19.0859 192.96 19.0859L192.96 15.0859L192.96 11.0859C191.049 11.086 189.209 11.5831 187.599 12.4819L189.549 15.9746ZM192.96 15.0859V19.0859H197.141V15.0859V11.0859H192.96V15.0859ZM197.141 15.0859V19.0859C197.424 19.0859 197.7 19.1257 197.964 19.2009L199.061 15.3545L200.159 11.5081C199.19 11.2315 198.175 11.0859 197.141 11.0859V15.0859ZM199.061 15.3545L200.155 19.2021C200.426 19.125 200.701 19.0859 200.975 19.0859L200.975 15.0859L200.974 11.0859C199.936 11.086 198.926 11.2347 197.968 11.5069L199.061 15.3545ZM200.975 15.0859V19.0859H207.356V15.0859V11.0859H200.975V15.0859ZM207.356 15.0859L207.356 19.0859C209.109 19.086 211.12 19.4942 212.774 20.7241L215.161 17.5146L217.548 14.3052C214.086 11.7299 210.205 11.086 207.356 11.0859L207.356 15.0859ZM215.161 17.5146L212.774 20.7241C213.218 21.0544 213.609 21.4244 213.948 21.8273L217.008 19.251L220.068 16.6747C219.33 15.7982 218.487 15.0035 217.548 14.3052L215.161 17.5146ZM217.008 19.251L219.199 22.5971C222.794 20.2424 226.831 18.6455 230.705 18.6455V14.6455V10.6455C224.735 10.6455 219.175 13.0495 214.816 15.9049L217.008 19.251ZM230.705 14.6455L230.607 18.6443L231.205 18.659L231.303 14.6602L231.401 10.6614L230.803 10.6467L230.705 14.6455ZM231.303 14.6602L231.109 18.6555C232.575 18.7264 234.218 19.1723 235.487 20.1425L237.917 16.9648L240.346 13.7872C237.451 11.5738 234.104 10.7911 231.496 10.6648L231.303 14.6602ZM237.917 16.9648L240.646 19.8891L240.719 19.8207L237.99 16.8965L235.261 13.9723L235.188 14.0406L237.917 16.9648ZM237.99 16.8965L240.675 19.8615C241.225 19.3639 241.942 19.086 242.689 19.0859L242.688 15.0859L242.688 11.0859C239.954 11.0861 237.324 12.1037 235.305 13.9314L237.99 16.8965ZM242.688 15.0859V19.0859H247.393V15.0859V11.0859H242.688V15.0859ZM247.393 15.0859L247.392 19.0859C247.892 19.086 248.372 19.2104 248.799 19.4378L250.678 15.9062L252.556 12.3747C251.001 11.5475 249.235 11.086 247.393 11.0859L247.393 15.0859ZM250.678 15.9062L252.557 19.4374C252.987 19.2087 253.47 19.086 253.966 19.0859L253.966 15.0859L253.966 11.0859C252.147 11.086 250.375 11.5361 248.799 12.3751L250.678 15.9062ZM253.966 15.0859V19.0859H258.67V15.0859V11.0859H253.966V15.0859ZM258.67 15.0859L258.67 19.0859C259.883 19.086 260.977 19.8168 261.441 20.938L265.137 19.4072L268.832 17.8765C267.13 13.7663 263.119 11.0861 258.67 11.0859L258.67 15.0859ZM265.137 19.4072L261.441 20.9379C261.905 22.0586 261.649 23.3486 260.791 24.2068L263.619 27.0352L266.448 29.8635C269.593 26.7178 270.535 21.9872 268.832 17.8766L265.137 19.4072ZM263.619 27.0352L260.791 24.2068L241.537 43.4617L244.365 46.29L247.194 49.1184L266.448 29.8635L263.619 27.0352ZM244.365 46.29L241.537 43.4614C240.975 44.0237 240.212 44.3398 239.416 44.3398L239.416 48.3398L239.416 52.3398C242.333 52.3397 245.131 51.1813 247.193 49.1186L244.365 46.29ZM239.416 48.3398V44.3398H234.712V48.3398V52.3398H239.416V48.3398ZM234.712 48.3398L234.712 44.3398C234.211 44.3398 233.731 44.2152 233.304 43.9882L231.426 47.5195L229.547 51.0509C231.103 51.8789 232.87 52.3398 234.712 52.3398L234.712 48.3398ZM231.426 47.5195L229.547 43.9881C229.116 44.2172 228.633 44.3398 228.138 44.3398L228.139 48.3398L228.139 52.3398C229.958 52.3398 231.729 51.8889 233.304 51.051L231.426 47.5195ZM228.139 48.3398V44.3398H223.435V48.3398V52.3398H228.139V48.3398ZM223.435 48.3398L223.435 44.3398C223.012 44.3398 222.604 44.2508 222.229 44.0857L220.618 47.7471L219.007 51.4085C220.374 52.0096 221.877 52.3398 223.434 52.3398L223.435 48.3398ZM220.618 47.7471L219.312 43.9664C217.825 44.4801 216.236 44.7803 214.504 44.7803V48.7803V52.7803C217.19 52.7803 219.661 52.3099 221.924 51.5277L220.618 47.7471ZM214.504 48.7803L214.504 44.7803C213.165 44.7803 211.8 44.5447 210.645 43.9003L208.696 47.3936L206.748 50.8869C209.484 52.413 212.329 52.7802 214.504 52.7803L214.504 48.7803ZM208.696 47.3936L206.689 43.9338C206.234 44.1976 205.716 44.3398 205.183 44.3398V48.3398V52.3398C207.144 52.3398 209.045 51.8157 210.704 50.8533L208.696 47.3936ZM205.183 48.3398V44.3398H201.167V48.3398V52.3398H205.183V48.3398ZM201.167 48.3398L201.167 44.3398C200.565 44.3398 200.006 44.163 199.532 43.8529L197.345 47.2021L195.158 50.5514C196.889 51.6816 198.959 52.3398 201.167 52.3398L201.167 48.3398ZM197.345 47.2021L195.159 43.8518C194.678 44.1661 194.111 44.3398 193.52 44.3398V48.3398V52.3398C195.692 52.3398 197.772 51.6987 199.53 50.5525L197.345 47.2021ZM193.52 48.3398V44.3398H189.367V48.3398V52.3398H193.52V48.3398ZM189.367 48.3398L189.367 44.3398C188.886 44.3398 188.418 44.2228 187.994 44.0043L186.161 47.5596L184.328 51.1148C185.855 51.9022 187.577 52.3398 189.367 52.3398L189.367 48.3398ZM186.161 47.5596L184.591 43.8804C183.146 44.4972 181.561 44.7802 179.785 44.7803L179.785 48.7803L179.785 52.7803C182.427 52.7802 185.114 52.3551 187.731 51.2387L186.161 47.5596ZM179.785 48.7803V44.7803C178.028 44.7803 176.268 44.361 174.809 43.516L172.805 46.9775L170.8 50.4391C173.641 52.0842 176.823 52.7803 179.785 52.7803V48.7803ZM172.805 46.9775L170.435 43.7551C169.928 44.1282 169.313 44.3398 168.659 44.3398V48.3398V52.3398C171.072 52.3398 173.337 51.551 175.174 50.2L172.805 46.9775ZM168.659 48.3398V44.3398H165.276V48.3398V52.3398H168.659V48.3398ZM165.276 48.3398V44.3398C164.592 44.3398 163.933 44.1043 163.403 43.6799L160.903 46.8027L158.404 49.9255C160.33 51.4678 162.747 52.3398 165.276 52.3398V48.3398ZM160.903 46.8027L158.403 43.68C157.88 44.0992 157.227 44.3398 156.529 44.3398V48.3398V52.3398C159.1 52.3398 161.505 51.4448 163.403 49.9254L160.903 46.8027ZM156.529 48.3398V44.3398H153.146V48.3398V52.3398H156.529V48.3398ZM153.146 48.3398V44.3398C152.64 44.3398 152.144 44.2095 151.701 43.9653L149.77 47.4688L147.84 50.9722C149.439 51.8532 151.26 52.3398 153.146 52.3398V48.3398ZM149.77 47.4688L148.139 43.8167C146.756 44.4345 145.225 44.7519 143.587 44.752L143.587 48.752L143.587 52.752C146.272 52.7519 148.924 52.2282 151.402 51.1208L149.77 47.4688ZM143.587 48.752V44.752C143.042 44.752 142.471 44.715 141.886 44.6373L141.359 48.6025L140.833 52.5678C141.76 52.6908 142.683 52.752 143.587 52.752V48.752ZM141.359 48.6025L137.592 49.9479L141.113 59.8053L144.88 58.46L148.647 57.1146L145.126 47.2572L141.359 48.6025ZM144.88 58.46L141.113 59.8052C141.222 60.1105 141.176 60.4508 140.988 60.7174L144.258 63.0215L147.528 65.3255C149.213 62.9341 149.631 59.8717 148.647 57.1147L144.88 58.46ZM144.258 63.0215L140.988 60.7173C140.812 60.9672 140.532 61.1219 140.231 61.1401L140.473 65.1328L140.714 69.1255C143.435 68.961 145.947 67.5686 147.527 65.3257L144.258 63.0215ZM140.473 65.1328L138.338 68.5157C138.54 68.6432 138.73 68.7858 138.908 68.9457L141.583 65.9717L144.258 62.9976C143.728 62.5209 143.174 62.1074 142.607 61.75L140.473 65.1328ZM141.583 65.9717L138.908 68.9457C139.819 69.7652 140.295 70.932 140.295 72.2852L144.295 72.2852L148.295 72.2851C148.295 69.0128 147.099 65.5534 144.258 62.9977L141.583 65.9717ZM144.295 72.2852H140.295C140.295 73.6373 139.82 74.8069 138.91 75.6304L141.595 78.5957L144.279 81.561C147.102 79.0051 148.295 75.554 148.295 72.2852H144.295ZM141.595 78.5957L138.91 75.6304C138.34 76.1467 137.651 76.4857 136.868 76.6716L137.792 80.5635L138.716 84.4554C140.626 84.002 142.578 83.1008 144.279 81.561L141.595 78.5957ZM137.792 80.5635L133.822 80.0769C133.816 80.1267 133.804 80.1823 133.785 80.244L137.61 81.4141L141.435 82.5842C141.584 82.0972 141.697 81.5845 141.762 81.05L137.792 80.5635ZM137.61 81.4141L136.766 85.3239C137.593 85.5026 138.316 85.8455 138.908 86.3783L141.583 83.4043L144.258 80.4302C142.477 78.8288 140.43 77.9309 138.455 77.5042L137.61 81.4141ZM141.583 83.4043L138.908 86.3783C139.819 87.1978 140.295 88.3646 140.295 89.7178L144.295 89.7178L148.295 89.7178C148.295 86.4454 147.099 82.986 144.258 80.4303L141.583 83.4043ZM144.295 89.7178H140.295C140.295 91.0699 139.82 92.2395 138.91 93.063L141.595 96.0283L144.279 98.9936C147.102 96.4377 148.295 92.9866 148.295 89.7178H144.295ZM141.595 96.0283L138.91 93.063C138.34 93.5794 137.651 93.9184 136.868 94.1042L137.792 97.9961L138.716 101.888C140.626 101.435 142.578 100.533 144.279 98.9936L141.595 96.0283ZM137.792 97.9961L133.822 97.5095C133.761 98.0016 133.337 98.3818 132.831 98.3818V102.382V106.382C137.432 106.382 141.217 102.934 141.762 98.4827L137.792 97.9961ZM132.831 102.382V98.3818H130.527V102.382V106.382H132.831V102.382ZM130.527 102.382V98.3818C129.975 98.3818 129.527 97.9341 129.527 97.3818H125.527H121.527C121.527 102.352 125.557 106.382 130.527 106.382V102.382ZM125.527 97.3818H129.527V86.1816H125.527H121.527V97.3818H125.527ZM125.527 86.1816L129.527 86.1818C129.527 85.9442 129.606 85.7341 129.744 85.5608L126.618 83.0654L123.492 80.5701C122.266 82.1062 121.527 84.0619 121.527 86.1815L125.527 86.1816ZM126.618 83.0654L129.744 80.5701C129.606 80.3967 129.527 80.1867 129.527 79.9492H125.527H121.527C121.527 82.0691 122.266 84.0247 123.492 85.5608L126.618 83.0654ZM125.527 79.9492H129.527V68.749H125.527H121.527V79.9492H125.527ZM125.527 68.749L129.527 68.7492C129.527 68.4372 129.665 68.1616 129.895 67.9727L127.361 64.8779L124.827 61.7831C122.818 63.4281 121.527 65.9405 121.527 68.7489L125.527 68.749ZM127.361 64.8779L128.637 61.0868C128.43 61.0173 128.257 60.8876 128.137 60.7172L124.866 63.0195L121.595 65.3219C122.716 66.914 124.301 68.0687 126.086 68.6691L127.361 64.8779ZM124.866 63.0195L128.137 60.7174C127.951 60.4521 127.904 60.1114 128.014 59.8042L124.249 58.4541L120.484 57.104C119.495 59.86 119.909 62.9258 121.595 65.3217L124.866 63.0195ZM124.249 58.4541L128.014 59.8037L131.65 49.6602L127.885 48.3105L124.119 46.9609L120.484 57.1045L124.249 58.4541ZM127.885 48.3105L128.241 44.3265C127.206 44.2338 126.294 43.6073 125.832 42.6886L122.259 44.4854L118.685 46.2821C120.381 49.6555 123.715 51.9535 127.528 52.2946L127.885 48.3105ZM122.259 44.4854L119.379 41.7091C119.194 41.9006 119.008 42.0789 118.819 42.2443L121.45 45.2568L124.082 48.2694C124.457 47.9416 124.808 47.6039 125.138 47.2616L122.259 44.4854ZM121.45 45.2568L118.819 42.2442C116.771 44.0329 114.084 44.7802 111.602 44.7803L111.602 48.7803L111.603 52.7803C115.545 52.7802 120.255 51.6116 124.082 48.2695L121.45 45.2568ZM111.602 48.7803V44.7803C110.259 44.7803 109.022 44.5805 107.887 44.232L106.713 48.0557L105.538 51.8793C107.425 52.4589 109.454 52.7803 111.602 52.7803V48.7803ZM106.713 48.0557L105.586 44.2176C105.312 44.298 105.029 44.3398 104.742 44.3398L104.742 48.3398L104.742 52.3398C105.812 52.3398 106.853 52.1833 107.84 51.8937L106.713 48.0557ZM104.742 48.3398V44.3398H99.791V48.3398V52.3398H104.742V48.3398ZM99.791 48.3398L99.7911 44.3398C98.9578 44.3398 98.1615 43.9927 97.5932 43.3807L94.662 46.1025L91.7309 48.8244C93.8115 51.065 96.7313 52.3397 99.7908 52.3398L99.791 48.3398ZM94.662 46.1025L97.5904 43.3777L97.4205 43.1951L94.4921 45.9199L91.5637 48.6447L91.7337 48.8273L94.662 46.1025ZM94.4921 45.9199L91.4677 43.3021C90.8978 43.9605 90.071 44.3398 89.2011 44.3398L89.2011 48.3398L89.2011 52.3398C92.4045 52.3398 95.4347 50.943 97.5165 48.5377L94.4921 45.9199ZM89.2011 48.3398V44.3398H85.2128V48.3398V52.3398H89.2011V48.3398ZM85.2128 48.3398L85.213 44.3398C84.9192 44.3398 84.6329 44.2966 84.3581 44.2148L83.2177 48.0488L82.0773 51.8828C83.0732 52.1791 84.1271 52.3398 85.2126 52.3398L85.2128 48.3398ZM83.2177 48.0488L82.078 44.2146C81.7998 44.2973 81.513 44.3398 81.2245 44.3398L81.2245 48.3398L81.2246 52.3398C82.3019 52.3398 83.3559 52.1807 84.3574 51.883L83.2177 48.0488ZM81.2245 48.3398V44.3398H75.9706V48.3398V52.3398H81.2245V48.3398ZM75.9706 48.3398L75.9709 44.3398C75.2817 44.3398 74.614 44.1001 74.0783 43.6636L71.5517 46.7646L69.0251 49.8657C70.9723 51.4522 73.4201 52.3397 75.9704 52.3398L75.9706 48.3398ZM71.5517 46.7646L69.0249 43.6638C68.4951 44.0956 67.8285 44.3398 67.1288 44.3398L67.1288 48.3398L67.1289 52.3398C69.7048 52.3398 72.1486 51.4381 74.0785 49.8655L71.5517 46.7646ZM67.1288 48.3398V44.3398H57.4814V48.3398V52.3398H67.1288V48.3398ZM57.4814 48.3398V44.3398C57.1315 44.3398 56.7826 44.2774 56.4501 44.1553L55.0712 47.9102L53.6924 51.665C54.8969 52.1073 56.1787 52.3398 57.4814 52.3398V48.3398ZM55.0712 47.9102L56.5414 44.1901L56.2152 44.0612L54.7451 47.7812L53.2749 51.5013L53.601 51.6302L55.0712 47.9102ZM54.7451 47.7812L53.1798 44.1002C52.8133 44.2561 52.4171 44.3398 52.0077 44.3398L52.0078 48.3398L52.0078 52.3398C53.5186 52.3398 54.9777 52.0289 56.3103 51.4623L54.7451 47.7812ZM52.0078 48.3398V44.3398H47.3046V48.3398V52.3398H52.0078V48.3398ZM47.3046 48.3398V44.3398C46.5083 44.3398 45.7448 44.0235 45.1827 43.4615L42.3544 46.29L39.5261 49.1186C41.5895 51.1818 44.3881 52.3398 47.3046 52.3398V48.3398ZM42.3544 46.29L45.1829 43.4616L43.8049 42.0837L40.9765 44.9121L38.1481 47.7405L39.526 49.1185L42.3544 46.29ZM40.9765 44.9121L37.5363 42.8713C37.0013 43.7731 36.0241 44.3398 34.9569 44.3398L34.957 48.3398L34.957 52.3398C38.8783 52.3398 42.456 50.2581 44.4167 46.9529L40.9765 44.9121ZM34.957 48.3398V44.3398H30.2538V48.3398V52.3398H34.957V48.3398ZM30.2538 48.3398L30.2539 44.3398C29.4584 44.3398 28.6954 44.0238 28.1328 43.4613L25.3046 46.29L22.4765 49.1187C24.5393 51.1811 27.3368 52.3398 30.2538 52.3398L30.2538 48.3398ZM25.3046 46.29L28.1331 43.4616L8.87817 24.2067L6.04975 27.0352L3.22132 29.8636L22.4762 49.1185L25.3046 46.29ZM6.04975 27.0352L8.87841 24.207C8.02086 23.3493 7.7642 22.0593 8.22866 20.938L4.53314 19.4072L0.837623 17.8765C-0.86468 21.9862 0.0753396 26.7171 3.22108 29.8633L6.04975 27.0352ZM4.53314 19.4072L8.22866 20.938C8.69313 19.8167 9.78688 19.0859 10.9999 19.0859V15.0859V11.0859C6.55054 11.0859 2.54011 13.7664 0.83763 17.8765L4.53314 19.4072ZM10.9999 15.0859V19.0859H18.8662V15.0859V11.0859H10.9999V15.0859ZM18.8662 15.0859L18.8661 19.0859C20.6237 19.0859 22.3608 19.2954 24.0108 19.6958L24.954 15.8086L25.8973 11.9214C23.6242 11.3698 21.2535 11.0859 18.8662 11.0859L18.8662 15.0859ZM24.954 15.8086L26.7241 19.3956C27.1299 19.1954 27.5807 19.0859 28.0507 19.0859V15.0859V11.0859C26.3264 11.0859 24.6667 11.4898 23.1839 12.2216L24.954 15.8086ZM28.0507 15.0859V19.0859H36.1923V15.0859V11.0859H28.0507V15.0859ZM36.1923 15.0859L36.1923 19.0859C39.2444 19.086 42.2194 19.6986 44.776 20.8151L46.3769 17.1494L47.9778 13.4837C44.3522 11.9003 40.2799 11.086 36.1924 11.0859L36.1923 15.0859ZM46.3769 17.1494L49.2129 19.9702C49.7686 19.4115 50.5315 19.086 51.3409 19.0859L51.3408 15.0859L51.3407 11.0859C48.3733 11.086 45.5775 12.2809 43.5408 14.3286L46.3769 17.1494ZM51.3408 15.0859V19.0859H55.5214V15.0859V11.0859H51.3408V15.0859ZM55.5214 15.0859L55.5214 19.0859C55.6591 19.0859 55.8183 19.0985 56.0036 19.1287L56.6464 15.1807L57.2892 11.2327C56.7368 11.1427 56.1448 11.0859 55.5215 11.0859L55.5214 15.0859ZM56.6464 15.1807L57.299 19.1271C57.4654 19.0996 57.6292 19.0859 57.79 19.0859V15.0859V11.0859C57.176 11.0859 56.5756 11.1381 55.9939 11.2343L56.6464 15.1807ZM57.79 15.0859V19.0859H62.8505V15.0859V11.0859H57.79V15.0859ZM62.8505 15.0859L62.8505 19.0859C63.5838 19.0859 64.2896 19.3557 64.8367 19.8394L67.4863 16.8428L70.1358 13.8462C68.1374 12.0792 65.5506 11.086 62.8506 11.0859L62.8505 15.0859ZM67.4863 16.8428L70.1352 19.8399C70.6821 19.3566 71.3865 19.086 72.1201 19.0859L72.1201 15.0859L72.12 11.0859C69.4091 11.086 66.8269 12.0872 64.8373 13.8456L67.4863 16.8428ZM72.1201 15.0859V19.0859H76.1357V15.0859V11.0859H72.1201V15.0859ZM76.1357 15.0859L76.1356 19.0859C76.4803 19.0859 76.8075 19.1431 77.1096 19.2469L78.4091 15.4639L79.7086 11.6808C78.5769 11.2921 77.3719 11.0859 76.1357 11.0859L76.1357 15.0859ZM78.4091 15.4639L79.7043 19.2484C80.0166 19.1415 80.3437 19.0859 80.6747 19.0859V15.0859V11.0859C79.4453 11.0859 78.2437 11.2927 77.1139 11.6794L78.4091 15.4639ZM80.6747 15.0859V19.0859H86.0107V15.0859V11.0859H80.6747V15.0859ZM86.0107 15.0859L86.0106 19.0859C86.8203 19.0859 87.5962 19.4136 88.1612 19.9943L91.0283 17.2051L93.8953 14.4158C91.8246 12.2874 88.9808 11.086 86.0107 11.0859L86.0107 15.0859ZM91.0283 17.2051L88.1609 19.994L92.8513 24.8163L95.7187 22.0273L98.586 19.2384L93.8956 14.4161L91.0283 17.2051ZM95.7187 22.0273L99.2754 23.8576C99.7676 22.9011 100.408 22.0412 101.207 21.2923L98.4726 18.373L95.7381 15.4537C94.2492 16.8484 93.0604 18.4513 92.162 20.1971L95.7187 22.0273ZM98.4726 18.373L101.207 21.2924C103.241 19.3869 105.866 18.6455 108.329 18.6455V14.6455V10.6455C104.349 10.6455 99.5922 11.8437 95.7381 15.4537L98.4726 18.373ZM108.329 14.6455L108.329 18.6455C109.704 18.6455 111.085 18.8181 112.406 19.2448L113.636 15.4385L114.865 11.6321C112.596 10.8991 110.361 10.6455 108.329 10.6455L108.329 14.6455ZM113.636 15.4385L114.891 19.2365C115.187 19.1387 115.503 19.086 115.831 19.0859L115.831 15.0859L115.831 11.0859C114.641 11.086 113.478 11.2779 112.381 11.6404L113.636 15.4385ZM115.831 15.0859V19.0859H120.893V15.0859V11.0859H115.831V15.0859ZM120.893 15.0859L120.787 19.0845L121.156 19.0943L121.262 15.0957L121.367 11.0971L120.998 11.0873L120.893 15.0859ZM121.262 15.0957L121.051 19.0901C121.728 19.1259 122.375 19.392 122.883 19.844L125.54 16.8535L128.196 13.863C126.339 12.2131 123.971 11.2331 121.473 11.1013L121.262 15.0957ZM125.54 16.8535L128.196 19.8442C128.577 19.5065 129.04 19.268 129.543 19.157L128.681 15.251L127.819 11.345C125.971 11.7528 124.275 12.6272 122.884 13.8628L125.54 16.8535ZM128.681 15.251L132.176 13.3061C132.116 13.1981 132.082 13.0776 132.082 12.9404H128.082H124.082C124.082 14.4807 124.484 15.9352 125.185 17.1959L128.681 15.251ZM128.082 12.9404H132.082V8.75977H128.082H124.082V12.9404H128.082ZM128.082 8.75977H132.082C132.082 8.34003 132.422 8 132.842 8V4V0C128.004 0 124.082 3.92175 124.082 8.75977H128.082ZM132.842 4V8H136.72V4V0H132.842V4ZM25.4267 26.5771L27.32 23.0536C27.321 23.0541 27.3208 23.054 27.3181 23.0526C27.3167 23.0518 27.3153 23.051 27.313 23.0498C27.3109 23.0487 27.3081 23.0471 27.3051 23.0455C27.294 23.0395 27.2719 23.0276 27.246 23.0139L25.3759 26.5498L23.5059 30.0858C23.5009 30.0831 23.4975 30.0813 23.4962 30.0806C23.4951 30.08 23.4951 30.08 23.4976 30.0814C23.4988 30.082 23.5002 30.0828 23.5024 30.084C23.5043 30.085 23.5071 30.0865 23.51 30.0881C23.5157 30.0912 23.524 30.0956 23.5334 30.1007L25.4267 26.5771ZM25.3759 26.5498L27.1648 22.9721L27.157 22.9682L25.3681 26.5459L23.5793 30.1236L23.5871 30.1275L25.3759 26.5498ZM25.3681 26.5459L23.5017 30.0838C23.508 30.0871 23.5171 30.0919 23.5335 30.1008L25.4267 26.5771L27.3199 23.0535C27.2974 23.0414 27.2675 23.0254 27.2345 23.008L25.3681 26.5459Z" fill="#FF6213" mask="url(#path-1-outside-1_410_4231)"/>
<path fill-rule="evenodd" clip-rule="evenodd" d="M135.407 86.1816C137.775 86.1816 139.295 87.5099 139.295 89.7178C139.295 91.9258 137.775 93.2705 135.407 93.2705H132.831V97.3818H130.527V86.1816H135.407ZM132.831 91.0938H135.295C136.351 91.0938 136.959 90.5658 136.959 89.7178C136.959 88.8699 136.351 88.3418 135.295 88.3418H132.831V91.0938Z" fill="white"/>
<path fill-rule="evenodd" clip-rule="evenodd" d="M135.407 68.749C137.775 68.749 139.295 70.0773 139.295 72.2852C139.295 74.4932 137.775 75.8379 135.407 75.8379H132.831V79.9492H130.527V68.749H135.407ZM132.831 73.6611H135.295C136.351 73.6611 136.959 73.1332 136.959 72.2852C136.959 71.4373 136.351 70.9092 135.295 70.9092H132.831V73.6611Z" fill="white"/>
<path fill-rule="evenodd" clip-rule="evenodd" d="M140.171 60.1416H137.659L136.699 57.2617H132.427L131.467 60.1416H128.955L132.971 48.9414H136.171L140.171 60.1416ZM133.131 55.166H135.995L134.57 50.9102L133.131 55.166Z" fill="white"/>
<path d="M108.695 21.6514C112.452 21.7546 115.372 23.482 117.131 28.3848H113.005C112.262 26.377 110.667 25.3594 108.824 25.3594C106.844 25.3594 105.221 26.4044 105.221 29.7051C105.221 33.5833 107.586 38.0663 111.52 38.0664C113.252 38.0664 114.957 37.0768 114.683 34.4365H118.809C119.331 39.4421 115.453 41.7801 111.603 41.7803C104.946 41.7803 101.013 35.3711 101.013 29.5674C101.013 23.9014 104.561 21.6455 108.329 21.6455L108.695 21.6514Z" fill="white"/>
<path d="M178.354 34.5459C177.199 36.7189 178.162 38.2041 180.308 38.2041C182.645 38.204 184.076 36.6916 185.616 34.1611L192.96 22.0859H197.141L189.439 34.5459C186.359 39.7994 184.131 41.7802 179.785 41.7803C175.027 41.7803 172.331 37.9295 175.191 33.1436L181.958 22.0859H186.139L178.354 34.5459Z" fill="white"/>
<path d="M230.705 21.6455C234.033 21.6455 236.536 24.2044 233.318 28.6328H229.412C231.448 25.6072 230.567 24.8643 229.385 24.8643C224.241 24.8643 214.752 33.5836 214.752 37.627C214.752 38.2045 215.027 38.5615 215.77 38.5615C217.502 38.5615 219.785 37.3515 221.793 35.3711H226.552C222.618 39.2769 218.96 41.7803 214.504 41.7803C211.726 41.7802 210.764 40.4872 210.764 38.6719C210.764 32.1255 221.931 21.6455 230.705 21.6455Z" fill="white"/>
<path d="M146.42 21.6738C150.271 21.6738 154.067 23.8188 153.682 28.5771H150.188C150.292 25.9987 148.533 24.9675 146.749 24.8486L146.393 24.8369C142.239 24.8369 139.626 29.5948 139.626 33.748C139.626 37.2686 141.469 38.5897 143.642 38.5898C145.787 38.5898 147.548 37.2413 148.346 34.9033H151.894C150.326 39.3867 147.52 41.7529 143.587 41.7529C139.516 41.7529 136.05 39.4419 136.05 33.8857C136.05 28.1921 139.929 21.6738 146.42 21.6738Z" fill="white"/>
<path fill-rule="evenodd" clip-rule="evenodd" d="M18.8662 22.0859C25.9627 22.0859 32.0967 26.0198 32.0967 30.7783C32.0965 32.8134 30.8041 34.161 28.1641 34.1611H27.7783L34.957 41.3398H30.2539L11 22.0859H18.8662ZM24.5049 30.915H26.9531C27.7782 30.915 28.1084 30.6129 28.1084 30.0078C28.1084 27.5564 24.4947 25.4404 20.4678 25.3105L20.0771 25.3047H18.8945L24.5049 30.915Z" fill="white"/>
<path fill-rule="evenodd" clip-rule="evenodd" d="M36.1924 22.0859C43.2887 22.0861 49.4219 25.882 49.4219 30.5029C49.4219 31.1355 49.2845 31.7131 49.0645 32.1807L62.8291 41.0967L51.3408 22.0859H55.5215L67.1289 41.3398H57.4814L45.4619 33.7764H44.4434L52.0078 41.3398H47.3047L28.0508 22.0859H36.1924ZM41.2803 30.6406H44.2783C45.1035 30.6406 45.4336 30.3375 45.4336 29.7324C45.4334 27.4143 41.8198 25.4321 37.793 25.3105L37.4023 25.3047H35.9443L41.2803 30.6406Z" fill="white"/>
<path d="M75.834 36.4443L72.1201 22.0859H76.1357L81.2246 41.3398H75.9707L57.79 22.0859H62.8506L75.834 36.4443Z" fill="white"/>
<path fill-rule="evenodd" clip-rule="evenodd" d="M104.742 41.3398H99.791L95.1426 36.334H87.9912L89.2012 41.3398H85.2129L80.6748 22.0859H86.0107L104.742 41.3398ZM87.1387 32.8682H91.8975L85.4336 25.9365L87.1387 32.8682Z" fill="white"/>
<path d="M127.494 29.375L130.189 22.0859H134.397L130.217 33.3633L132.473 41.3398H128.512L126.256 33.3633L115.831 22.0859H120.893L127.494 29.375Z" fill="white"/>
<path d="M161.894 22.0859L159.775 29.6504H168.522L170.64 22.0859H174.023L168.659 41.3398H165.276L167.642 32.8135H158.896L156.529 41.3398H153.146L158.51 22.0859H161.894Z" fill="white"/>
<path fill-rule="evenodd" clip-rule="evenodd" d="M207.356 22.0859C210.024 22.0861 212.609 23.3518 212.609 26.6523C212.609 30.1454 209.639 33.3081 204.33 33.8857L205.184 41.3398H201.167L200.425 33.8311H198.06L193.521 41.3398H189.367L200.975 22.0859H207.356ZM200.149 30.3926H203.258C206.586 30.3926 208.539 28.907 208.539 27.2842C208.539 26.3303 208.007 25.7391 206.762 25.6689L206.503 25.6621H203.01L200.149 30.3926Z" fill="white"/>
<path d="M247.393 22.0859L239.828 29.6504H246.402L253.966 22.0859H258.67L239.416 41.3398H234.712L243.156 32.8955H236.583L228.139 41.3398H223.435L242.688 22.0859H247.393Z" fill="white"/>
<path d="M136.72 12.9404H132.842V8.75977H136.72V12.9404Z" fill="white"/>
</svg>
